<svg width="286" height="163" viewBox="0 0 286 163" fill="none" xmlns="http://www.w3.org/2000/svg">
<path d="M7.00861 113.288C7.55035 123.668 10.9791 147.112 24.6859 147.112H279.315C284.932 147.112 288.05 140.581 284.477 136.254C284.452 136.224 284.426 136.193 284.401 136.163C280.225 131.196 274.036 129.352 269.917 123.904C265.714 118.344 263.115 111.304 262.98 104.092C262.663 87.2228 271.034 67.2422 252.42 58.0521C246.241 55.0041 239.202 53.4426 234.214 48.4502C229.775 44.0086 227.665 37.5216 225.979 31.2356C224.292 24.9486 222.787 18.3987 219.149 13.1714C211.025 1.49709 193.395 2.61473 183.605 10.7931C177.399 15.9755 169.12 17.7929 161.429 16.9302C152.406 15.9185 150.308 10.4692 143.206 5.8507C130.063 -2.69458 111.777 -2.0008 99.843 8.73379C93.9399 14.0441 89.0041 22.0456 81.7912 25.4875C75.0109 28.7234 67.091 24.8647 59.8621 25.1996C52.9806 25.5195 45.9199 27.9347 41.1233 33.292C35.1789 36.5495 29.4484 40.0379 27.869 43.4026C24.4235 50.7427 26.7475 57.5705 18.7888 58.1861C7.71094 63.8617 8.24585 65.7012 2.7868 73.5932C-5.13806 85.1375 6.28259 99.368 7.00861 113.288Z" fill="#DAEDFF"/>
<path d="M25.1034 152.594H250.364C250.338 150.521 250.032 148.455 249.434 146.467C246.244 135.853 236.056 131.286 230.817 122.265C223.375 109.453 232.784 90.5939 222.954 79.4924C217.797 73.6683 209.165 72.4909 201.375 72.7827C193.586 73.0736 185.592 74.4179 178.129 72.175C164.692 68.136 154.543 53.0155 140.651 55.0035C127.436 56.8936 120.492 73.5124 107.394 76.0891C93.5562 78.8117 73.3603 76.8643 65.5701 73.8306C49.74 71.8582 42.0459 81.4157 42.5507 89.2753C42.5302 94.794 42.636 95.8269 37.9662 102.172C33.2626 111.877 23.6679 97.4335 18.1067 111.327C12.6818 124.879 16.2208 140.969 25.1034 152.594Z" fill="#B5E2B7"/>
<path d="M22.289 162.645H273.763C277.493 162.645 280.518 159.168 280.518 154.879C280.518 150.589 277.493 147.112 273.763 147.112H22.289C18.5582 147.112 15.5335 150.589 15.5335 154.879C15.5335 159.168 18.5582 162.645 22.289 162.645Z" fill="#6FC971"/>
<path d="M247.526 112.431C249.133 111.253 251.677 111.751 252.738 113.452C253.799 115.152 253.155 117.702 251.42 118.675C251.31 118.736 251.906 118.89 251.794 118.947C253.143 119.445 254.338 120.016 255.491 120.883C256.644 121.751 257.571 123.044 257.667 124.499C257.767 126.021 256.864 127.561 255.498 128.195C254.133 128.831 252.396 128.518 251.327 127.447C252.582 129.112 252.33 132.488 250.667 133.732C249.004 134.975 246.369 134.542 245.177 132.829C244.874 134.741 243.263 136.229 241.358 136.143C239.453 136.058 237.746 134.369 237.611 132.436C236.625 134.154 234.343 135.358 232.562 134.533C230.78 133.71 229.806 131.423 230.433 129.539C229.09 130.206 227.038 131.086 225.559 130.864C224.08 130.641 222.657 129.732 222.045 128.346C221.433 126.96 221.802 125.124 223.044 124.278C221.298 124.573 219.442 123.179 219.305 121.386C219.168 119.592 220.76 117.862 222.53 117.879C221.504 115.923 222.153 113.337 224.09 112.319C226.028 111.3 228.707 112.183 229.686 114.164C229.649 114.232 229.612 114.301 229.575 114.37C230.388 112.443 232.688 110.597 234.751 110.563C236.814 110.529 238.842 111.817 239.717 113.716C239.973 112.286 241.342 111.056 242.755 110.832C244.169 110.608 246.852 111.149 247.526 112.431Z" fill="#6FC971"/>
<path d="M92.018 31.2766C92.018 31.2766 81.12 34.462 78.5212 43.3179C75.9235 52.1738 74.5038 76.5624 67.4781 81.2731C60.4533 85.9828 52.5398 79.9151 50.7065 67.548C49.1397 63.7356 46.6006 62.7699 46.6006 62.7699C46.6006 62.7699 47.4954 67.4797 48.1336 72.2845C48.7739 77.1052 53.1571 87.2992 61.3809 88.4977C68.9922 89.606 75.0427 83.8791 78.9338 71.5456C82.825 59.2121 80.1914 54.1676 88.1288 48.3109C103.002 37.3364 100.095 29.6849 92.018 31.2766Z" fill="#F5EABD"/>
<path d="M49.7238 72.0799C51.1907 71.8921 52.2566 70.583 52.7276 68.7331C53.2635 66.6312 53.031 63.8324 51.7444 61.1958C49.3267 56.239 43.6984 56.3288 41.8769 53.9106C39.7775 57.192 37.48 73.6512 49.7238 72.0799Z" fill="#3A3956"/>
<path d="M49.9284 72.0799C51.4269 71.8921 52.5158 70.583 52.9968 68.7331C51.7439 67.9138 49.8197 67.3383 47.3371 66.3629C42.101 64.3028 41.9128 53.9106 41.9128 53.9106C39.7683 57.192 37.4214 73.6512 49.9284 72.0799Z" fill="#2B283E"/>
<path d="M197.367 146.525C197.367 146.525 188.237 153.707 185.972 152.446C183.708 151.184 190.072 142.489 191.086 141.746C192.1 141.005 196.71 143.942 197.367 146.525Z" fill="#3A3956"/>
<path d="M186.079 144.733C185.729 148.539 188.177 148.058 191.103 149.565C194.027 151.074 194.326 155.713 194.323 156.21C194.32 156.706 200.376 152.439 206.271 148.002C204.013 145.516 202.253 140.73 201.454 137.251C201.451 137.237 201.448 137.223 201.444 137.209C201.295 136.554 201.194 135.44 201.138 134.039C200.983 130.221 201.151 124.265 201.535 119.623C201.758 116.924 202.054 114.669 202.401 113.535C203.565 109.732 206.854 109.835 208.37 102.045C209.51 96.1942 212.858 81.8031 212.9 74.6826C212.943 67.561 210.689 58.4073 202.574 57.0652C175.542 52.5929 186.755 85.7824 187.545 90.0928C188.333 94.4031 187.476 101.685 186.939 109.465C186.405 117.245 187.638 129.176 187.935 133.814C188.235 138.452 186.427 140.926 186.079 144.733" fill="#EFF6EF"/>
<path d="M206.231 148.026C206.231 148.026 214.073 149.94 212.751 156.249C196.871 156.163 193.712 156.145 193.712 156.145L206.231 148.026Z" fill="#2B293F"/>
<path d="M195.2 132.52C195.363 132.738 195.602 132.918 195.893 133.065C198.057 134.164 200.579 132.465 200.592 129.962C200.61 126.69 200.765 122.878 201.022 119.7C200.495 119.776 199.954 119.809 199.423 119.857C198.409 119.95 197.332 120.136 196.61 120.748C195.805 121.431 195.633 122.471 195.505 123.433C195.253 125.313 195 127.193 194.748 129.074C194.591 130.246 194.46 131.521 195.2 132.52Z" fill="#3A3956"/>
<path d="M112.977 144.695C113.702 146.644 113.191 148.836 111.733 150.334C110.165 151.947 107.923 153.916 106.723 153.434C104.752 152.644 107.185 142.532 109.161 142.543C110.571 142.552 112.184 142.561 112.977 144.695Z" fill="#2B293F"/>
<path d="M146.548 46.1066C152.737 50.4332 156.844 61.1745 154.81 70.5702C153.086 78.5288 150.789 85.7976 134.353 98.7705C125.906 105.439 121.171 115.809 121.771 126.563C121.806 127.181 121.825 127.791 121.822 128.395C121.785 134.583 124.357 145.245 126.573 146.991C124.757 154.159 114.489 155.335 114.489 155.335C114.489 155.335 113.051 147.899 109.592 147.384C106.134 146.868 105.403 145.13 106.409 142.165C107.416 139.201 109.681 132.53 108.717 128.563C107.751 124.597 105.608 111.092 106.874 106.148C108.14 101.204 110.151 95.6459 110.429 90.6973C110.706 85.7468 107.781 67.8961 110.627 57.7718C113.407 47.8866 128.329 33.3709 146.548 46.1066Z" fill="#EFF6EF"/>
<path d="M126.14 147.112C126.14 147.112 133.608 149.239 132.349 156.249C117.225 156.152 114.217 156.133 114.217 156.133L126.14 147.112Z" fill="#2B293F"/>
<path d="M79.4957 65.3465C79.4957 65.661 79.4994 65.9724 79.5086 66.2849C79.5506 67.9973 79.6996 69.6755 79.9465 71.3174C82.7458 89.8921 98.1586 103.687 114.185 105.447C118.212 105.89 123.464 106.15 129.176 106.287C142.114 106.597 157.41 106.28 166.167 106.035C170.539 105.913 173.28 105.808 173.283 105.807C173.796 105.788 175.862 107.965 176.345 108.288C179.094 110.136 182.23 111.419 185.499 111.931C188.215 112.356 192.544 112.917 195.013 111.368C201.743 107.147 204.541 94.7261 214.162 97.4051C215.019 97.643 215.841 97.9705 216.636 98.3586C218.712 99.3735 220.601 100.813 222.45 102.227C226.139 105.048 229.607 107.714 234.385 106.641C238.818 105.645 242.923 103.14 245.798 99.5872C246.488 98.7355 247.105 97.8254 247.644 96.8709C249.954 92.7929 250.865 87.9055 250.098 83.2672C249.29 78.3828 246.794 74.069 243.592 70.249C241.709 68.0024 239.583 65.9251 237.413 64.006C231.55 58.8173 225.029 54.1719 220.606 47.694C216.448 41.6063 214.236 34.0288 208.702 29.1818C204.32 25.3457 198.338 23.7572 192.535 23.7572C190.749 23.7572 188.98 23.8771 187.222 24.0848C176.758 25.3205 166.727 29.6716 156.172 30.4144C148.867 30.9295 140.845 29.5295 133.491 29.0598C117.414 28.0307 98.3415 27.1418 92.1182 30.8751C81.6521 37.1543 79.4597 43.8156 79.4956 65.3465" fill="white"/>
<path d="M79.4952 65.7891C79.5372 67.52 79.6862 69.2162 79.9331 70.8757C82.7322 89.6502 98.1443 103.594 114.17 105.373C118.197 105.82 123.448 106.083 129.161 106.221C142.098 106.535 157.394 106.214 166.15 105.966C170.522 105.843 173.263 105.737 173.266 105.736C173.779 105.717 175.845 107.917 176.328 108.244C179.076 110.112 182.212 111.409 185.481 111.926C188.197 112.356 192.526 112.922 194.995 111.357C201.725 107.09 204.522 94.5361 214.143 97.2439C215 97.4844 215.821 97.8155 216.617 98.2077C218.692 99.2335 220.582 100.688 222.43 102.118C226.12 104.969 229.587 107.664 234.365 106.579C238.798 105.572 242.902 103.041 245.778 99.4495C246.467 98.5887 247.084 97.6688 247.623 96.704C242.423 97.5852 234.354 102.295 229.375 98.1649C222.325 92.3183 213.235 87.0809 203.887 89.8621C199.674 91.1152 198.814 94.9436 195.25 97.3244C191.517 99.8173 186.707 100.739 182.395 99.4363C178.706 98.3218 175.588 95.8544 172.364 93.714C162.494 87.1614 147.834 90.1168 136.513 90.0496C127.123 89.9945 116.352 90.9206 107.178 88.4267C96.7308 85.5874 90.7147 84.9344 79.4952 65.7891Z" fill="#EFF6EF"/>
<path d="M206.458 86.1544C207.9 88.2472 212.714 90.3411 215.619 90.8116C215.836 90.8468 215.993 91.0404 215.989 91.2621C215.953 93.7773 216.19 96.1672 216.692 98.4215C218.763 99.4318 220.65 100.865 222.496 102.272C226.179 105.08 229.641 107.734 234.411 106.665C238.836 105.675 242.935 103.181 245.806 99.6445C249.437 95.1709 251.043 89.097 250.099 83.4004C249.292 78.5385 246.8 74.2434 243.603 70.441C241.382 70.0899 237.697 69.8129 232.569 70.432C230.777 70.6467 228.969 70.1922 227.477 69.1718C223.654 66.5583 220.976 66.0627 219.847 67.4813C218.633 69.0053 218.519 72.4646 219.132 75.3541C219.233 75.8286 218.894 76.2821 218.415 76.3313C210.26 77.168 205.244 76.2721 204.115 77.4078C202.943 78.5846 204.952 83.9682 206.458 86.1544Z" fill="#EFF6EF"/>
<path d="M139.96 41.2016C140.884 44.4574 139.801 47.8929 139.336 51.2446C138.869 54.5962 139.336 58.5966 142.221 60.3902C144.663 61.9094 147.97 61.1787 150.328 59.5289C152.686 57.88 154.371 55.4745 156.263 53.3136C158.158 51.1517 160.471 49.1116 163.314 48.6415C168.063 47.855 172.965 51.6328 177.495 50.0099C180.267 49.0158 182.012 46.1951 182.676 43.3375C183.342 40.481 183.141 37.5076 183.249 34.5792C183.357 31.6487 183.837 28.5845 185.626 26.2539C186.094 25.6451 186.671 25.1091 187.316 24.6709C176.817 25.8946 166.752 30.2034 156.162 30.939C148.832 31.4491 140.783 30.0627 133.406 29.5976C133.555 30.2533 133.769 30.9001 134.053 31.5329C135.604 34.9934 138.925 37.5535 139.96 41.2016Z" fill="#3A3956"/>
<path d="M84.6105 143.961C85.4252 146.073 84.8516 148.446 83.2113 150.069C81.446 151.817 78.9257 153.95 77.5743 153.428C75.3582 152.571 78.0946 141.617 80.3162 141.629C81.9033 141.639 83.7175 141.649 84.6105 143.961Z" fill="#3A3956"/>
<path d="M117.31 46.1072C123.498 50.4328 127.605 61.1751 125.57 70.5699C123.847 78.5285 121.549 85.7984 105.115 98.7713C96.6666 105.439 91.9324 115.81 92.5316 126.564C92.5665 127.181 92.5863 127.792 92.5824 128.396C92.5456 134.584 95.1177 145.245 97.3325 146.991C95.5169 154.159 85.2491 155.335 85.2491 155.335C85.2491 155.335 83.8107 147.9 80.3526 147.384C76.8945 146.868 76.1628 145.13 77.1702 142.165C78.1766 139.201 80.4422 132.53 79.4776 128.563C78.512 124.598 76.3689 111.091 77.6341 106.148C78.9002 101.204 80.912 95.6467 81.1887 90.6971C81.4665 85.7475 78.5409 67.8968 81.3878 57.7724C84.1671 47.8863 99.0894 33.3705 117.31 46.1072Z" fill="white"/>
<path d="M97.4965 147.112C97.4965 147.112 105.339 149.239 104.016 156.249C88.1362 156.152 84.9776 156.132 84.9776 156.132L97.4965 147.112Z" fill="#3A3956"/>
<path d="M115.019 72.9642C114.046 75.033 112.782 77.0046 112.284 79.2326C111.782 81.4731 111.98 84.1001 110.318 85.7058C108.913 87.0629 106.556 87.1017 104.837 86.1611C103.119 85.2204 101.973 83.4924 101.266 81.6828C100.335 79.2966 100.066 76.7153 99.8048 74.1709C99.5745 71.9264 99.358 69.581 100.2 67.4841C103.994 58.0394 120.244 61.8681 115.019 72.9642Z" fill="#3A3956"/>
<path d="M247.433 81.374C247.751 81.1554 250.954 81.6688 255.46 82.275C259.965 82.8812 267.492 82.4808 269.218 82.9685C270.944 83.4571 265.636 89.4271 261.565 89.5446C257.492 89.6622 247.451 83.6665 247.451 83.6665C247.451 83.6665 245.795 82.4964 247.433 81.374Z" fill="#EFF6EF"/>
<path d="M228.284 78.5815C228.284 78.5815 220.172 80.064 215.515 80.5405C210.858 81.0191 206.969 79.8182 207.461 81.3527C207.953 82.8883 211.906 86.2573 215.73 86.776C219.553 87.2947 229.348 80.7149 229.348 80.7149L228.284 78.5815Z" fill="white"/>
<path d="M221.304 97.2099C222.609 100.488 224.247 102.422 225.633 105.19C226.672 107.269 227.571 109.816 228.08 113.758C229.27 122.947 233.572 124.237 238.791 124.268C241.319 124.283 243.445 123.289 244.968 121.544C246.593 119.682 247.534 116.968 247.554 113.71C247.557 113.26 247.573 112.835 247.602 112.43C247.98 107.136 250.527 105.332 253.02 100.183C255.704 94.6403 255.554 87.3658 252.632 81.9041C252.14 80.9845 251.579 80.1575 250.96 79.4179C250.801 79.2267 250.638 79.0405 250.471 78.8605C249.198 77.4902 247.714 76.4495 246.107 75.6917C241.479 73.5045 235.824 73.6582 231.219 74.9877C229.795 75.3997 228.471 75.9236 227.308 76.5268C222.574 78.9805 220.493 84.5287 220.238 89.6913C220.099 92.4969 220.498 95.1876 221.304 97.2099" fill="white"/>
<path d="M244.533 115.962C244.786 117.629 244.926 119.176 244.978 120.613C246.6 118.776 247.542 116.094 247.561 112.876C247.562 112.607 247.579 112.353 247.606 112.11C247.984 106.88 250.529 105.097 253.021 100.011C255.704 94.5343 255.553 87.3474 252.633 81.9515C252.141 81.0429 251.581 80.2259 250.963 79.4952C252.23 82.459 253.327 87.0901 250.917 91.7584C246.896 99.5573 242.356 101.582 244.533 115.962" fill="#EFF6EF"/>
<path d="M221.316 97.0685C222.637 100.349 224.294 102.285 225.696 105.056C228.38 104.503 230.535 106.088 233.167 105.989C237.934 105.811 239.743 99.6233 237.582 96.4089C235.204 92.8677 231.491 91.7368 226.464 91.3694C223.527 91.1546 221.482 90.2843 220.238 89.5463C220.098 92.3526 220.502 95.0469 221.316 97.0685Z" fill="#3A3956"/>
<path d="M229.971 123.586C232.17 125.908 235.447 127.223 238.659 126.981C241.836 126.741 246.621 124.415 247.388 120.997C248.056 118.024 247.408 114.204 244.032 113.315C241.015 112.521 238.648 115.282 238.648 115.282C238.648 115.282 234.033 110.259 229.873 113.452C228.44 114.554 227.474 116.451 227.523 118.257C227.562 119.719 228.14 121.131 228.967 122.342C229.269 122.782 229.604 123.198 229.971 123.586Z" fill="#F79B95"/>
<path d="M240.677 121.388C236.458 119.29 243.971 115.682 244.759 117.416C245.547 119.15 242.346 122.217 240.677 121.388Z" fill="#3A3956"/>
<path d="M235.357 120.482C239.618 118.449 232.119 114.774 231.306 116.487C230.494 118.2 233.671 121.287 235.357 120.482Z" fill="#3A3956"/>
<path d="M233.917 103.252C233.917 103.252 232.572 101.609 229.858 100.406C227.262 99.256 225.693 98.7876 225.693 98.7876C225.693 98.7876 227.518 96.9203 230.773 98.2446C233.823 99.485 233.917 103.252 233.917 103.252Z" fill="#2B283E"/>
<path d="M241.227 103.252C241.227 103.252 242.582 101.606 245.293 100.423C247.886 99.2924 249.45 98.8378 249.45 98.8378C249.45 98.8378 247.659 96.923 244.408 98.2216C241.362 99.4384 241.227 103.252 241.227 103.252Z" fill="#2B283E"/>
<path d="M235.061 78.3047C236.401 80.2617 232.765 80.9476 234.177 85.1206C235.59 89.2936 238.385 87.7164 238.398 85.4138C238.411 83.109 240.354 83.2994 243.402 81.9908C245.353 81.1509 245.757 78.4876 245.795 76.6793C245.807 76.1251 245.486 75.6264 244.995 75.4199C241.272 73.8524 236.996 73.709 233.137 74.4291C231.848 74.6698 231.707 76.5509 232.946 76.9885C233.751 77.2732 234.571 77.5888 235.061 78.3047Z" fill="#3A3956"/>
<path d="M226.264 80.9977C228.181 81.7666 229.218 81.0517 229.776 80.0962C229.802 80.052 229.826 80.0098 229.85 79.9656C230.628 78.4995 230.27 76.7339 229.063 75.5516C227.39 73.9126 224.613 72.4623 223.082 72.1991C222.957 72.1775 222.843 72.1814 222.741 72.2099C221.048 72.6636 222.488 79.4815 226.264 80.9977" fill="#3A3956"/>
<path d="M226.03 80.9972C227.841 81.7672 228.821 81.0513 229.348 80.0944C223.692 77.8924 223.025 72.1853 223.025 72.1853L222.702 72.1961C221.103 72.6505 222.463 79.4787 226.03 80.9972Z" fill="#2B283E"/>
<path d="M250.645 81.8952C248.732 82.7222 247.711 81.917 247.169 80.8542C247.144 80.8042 247.121 80.7575 247.098 80.7075C246.343 79.0764 246.722 77.1258 247.935 75.8337C249.618 74.0407 252.393 72.4715 253.917 72.1987C254.041 72.1759 254.154 72.1824 254.255 72.2161C255.931 72.7388 254.414 80.2652 250.645 81.8952Z" fill="#3A3956"/>
<path d="M250.391 81.8948C248.364 82.7228 247.284 81.9166 246.709 80.8523C253.036 78.4911 253.856 72.1853 253.856 72.1853L254.215 72.2027C255.99 72.7261 254.384 80.2626 250.391 81.8948Z" fill="#2B283E"/>
<path d="M180.006 146.525C180.006 146.525 170.876 153.707 168.612 152.446C166.347 151.185 172.711 142.489 173.726 141.746C174.739 141.004 179.35 143.942 180.006 146.525Z" fill="#3A3956"/>
<path d="M168.766 144.734C168.406 148.54 170.933 148.058 173.953 149.565C176.973 151.075 177.28 155.714 177.277 156.21C177.273 156.707 183.525 152.438 189.609 148.003C187.269 145.506 185.447 140.692 184.628 137.21C183.808 133.727 184.412 117.336 185.613 113.534C186.674 110.183 190.054 109.664 192.106 104.436C192.382 103.733 192.634 102.944 192.853 102.052C193.665 97.0881 195.652 86.0103 196.268 78.4087C196.381 77.0336 196.447 75.7725 196.453 74.6824C196.497 67.5619 194.171 58.4082 185.793 57.0651C157.89 52.5937 169.465 85.7833 170.279 90.0926C171.094 94.4039 170.208 101.685 169.655 109.465C169.103 117.245 170.376 129.176 170.683 133.814C170.992 138.453 169.127 140.926 168.766 144.734Z" fill="white"/>
<path d="M189.784 148.026C189.784 148.026 197.626 149.941 196.303 156.249C180.425 156.162 177.265 156.145 177.265 156.145L189.784 148.026Z" fill="#3A3956"/>
<path d="M178.048 100.196C179.467 102.936 182.559 104.723 185.758 105.028C187.016 105.148 188.283 105.056 189.513 104.791C191.202 104.426 192.538 103.189 192.946 101.591L192.953 101.565C193.785 96.6586 195.823 85.7089 196.454 78.1953C193.96 77.1149 190.609 77.706 188.974 79.858C187.174 82.2304 187.475 85.6743 185.489 87.9083C183.927 89.6619 181.324 90.2422 179.53 91.7813C177.145 93.8285 176.631 97.4583 178.048 100.196" fill="#3A3956"/>
<path d="M250.237 150.687C250.187 148.036 248.547 145.475 246.151 144.307C243.754 143.138 240.711 143.416 238.569 144.999C237.76 143.218 235.36 142.149 233.466 142.679C231.572 143.209 230.226 145.226 230.472 147.164C229.631 146.157 228.388 145.641 227.073 145.73C225.759 145.817 224.506 146.564 223.809 147.676C223.31 145.403 221.229 143.799 218.864 143.571C217.218 143.412 215.556 144.056 214.414 145.243C212.203 147.543 212.467 151.057 212.846 154.158C211.623 153.335 210.563 153.092 209.454 154.061C208.345 155.029 208.007 156.767 208.672 158.077H255.286C256.04 156.501 256.131 153.392 254.951 152.099C253.773 150.806 251.89 150.097 250.237 150.687Z" fill="#68BC6A"/>
<path d="M226.607 158.077C227.037 156.409 228.301 154.959 229.917 154.381C231.853 153.69 234.1 153.491 235.467 155.038C235.027 152.616 236.544 149.986 238.847 149.173C241.151 148.361 244.169 148.376 245.322 150.546C245.194 148.288 246.654 146.029 248.755 145.237C250.855 144.445 253.091 144.245 254.463 146.035C253.691 143.387 255.637 140.283 258.339 139.852C261.04 139.421 264.512 141.831 264.586 144.59C265.46 143.337 267.392 143.167 268.67 143.996C269.947 144.824 270.602 146.4 270.674 147.931C270.747 149.462 269.899 150.686 269.409 152.135C271.429 151.661 273.673 152.319 275.127 153.81C276.223 154.934 276.841 156.502 276.863 158.077H226.607Z" fill="#68BC6A"/>
</svg>
