<svg width="218" height="101" viewBox="0 0 218 101" fill="none" xmlns="http://www.w3.org/2000/svg">
<path d="M19.7226 88.9207C21.4906 91.8683 26.3458 98.0858 31.7075 95.3554L131.31 44.6335C133.507 43.5146 133.748 40.9712 131.702 40.4093C131.687 40.4057 131.673 40.4016 131.659 40.3977C129.28 39.7675 126.583 40.4577 124.155 39.6746C121.678 38.8751 119.606 37.3207 118.472 35.2248C115.819 30.3226 116.099 22.7738 107.44 23.7766C104.566 24.1103 101.579 25.0528 98.8793 24.5769C96.477 24.1538 94.6796 22.6646 93.0776 21.1503C91.4756 19.6357 89.9048 18.0076 87.6981 17.1937C82.7707 15.3755 76.042 19.2164 73.4382 23.5739C71.7876 26.3355 68.8214 28.5196 65.6834 29.7979C62.0024 31.2973 60.365 30.1112 56.8943 30.1667C50.4727 30.2693 43.4238 34.116 40.3645 39.6531C38.8514 42.392 38.12 45.7304 35.8145 48.1803C33.6473 50.4835 29.9709 50.9253 27.1934 52.4639C24.5495 53.9288 22.1496 56.0462 21.0764 58.5786C19.2394 60.7216 17.5207 62.8899 17.4072 64.1948C17.1597 67.0417 19.0922 68.5885 16.0713 70.3551C12.5887 74.2324 13.0737 74.6673 12.1213 78.0777C10.7517 83.0544 17.3522 84.9681 19.7226 88.9207Z" fill="#DAEDFF"/>
<path d="M20.395 97H218C217.977 95.8551 217.708 94.714 217.184 93.616C214.386 87.7533 205.448 85.231 200.852 80.2488C194.324 73.1721 202.578 62.7562 193.955 56.6246C189.431 53.4079 181.859 52.7575 175.026 52.9187C168.193 53.0794 161.18 53.8219 154.633 52.5831C142.846 50.3523 133.943 42.001 121.756 43.099C110.164 44.1429 104.072 53.3217 92.5828 54.7449C80.4437 56.2487 62.7272 55.1731 55.8935 53.4975C42.0069 52.4081 35.2574 57.6869 35.7002 62.0279C35.6822 65.076 35.7751 65.6465 31.6786 69.1509C27.5524 74.5114 19.1357 66.5338 14.2572 74.2072C9.49838 81.6924 12.6029 90.5792 20.395 97Z" fill="#B5E2B7"/>
<path d="M165.741 83.8225C167.429 83.8225 169.041 83.7842 170.577 83.7079C172.112 83.6315 173.34 83.5169 174.261 83.3641V70.4158C173.57 70.263 172.534 70.1103 171.152 69.9575C169.771 69.8046 168.504 69.7283 167.353 69.7283C165.741 69.7283 164.206 69.8429 162.747 70.0721C161.366 70.2249 160.138 70.5687 159.063 71.1033C157.988 71.638 157.144 72.3638 156.53 73.2805C155.916 74.1972 155.609 75.343 155.609 76.7181C155.609 79.3918 156.492 81.2633 158.257 82.3328C160.099 83.3259 162.594 83.8225 165.741 83.8225ZM164.359 33.8627C169.425 33.8627 173.647 34.4356 177.024 35.5815C180.402 36.7273 183.088 38.3697 185.084 40.5087C187.156 42.6476 188.615 45.2449 189.459 48.3006C190.303 51.3562 190.725 54.7557 190.725 58.4988V94.0207C188.269 94.5554 184.854 95.1665 180.478 95.8541C176.103 96.6179 170.807 96.9999 164.589 96.9999C160.675 96.9999 157.106 96.6562 153.882 95.9686C150.735 95.2811 148.01 94.1735 145.707 92.6456C143.404 91.0414 141.639 88.9789 140.411 86.458C139.183 83.937 138.569 80.8432 138.569 77.1764C138.569 73.6625 139.259 70.6832 140.641 68.2387C142.099 65.7941 144.018 63.8461 146.398 62.3948C148.777 60.9434 151.502 59.9121 154.573 59.3009C157.643 58.6134 160.828 58.2696 164.129 58.2696C166.355 58.2696 168.312 58.3842 170.001 58.6134C171.766 58.7662 173.186 58.9954 174.261 59.3009V57.6967C174.261 54.7938 173.062 49.943 171.296 48.186C169.531 46.429 166.979 45.436 164.1 44.7199C161.222 44.0037 158.343 43.889 154.745 43.1728C151.147 42.4567 144.059 42.098 142 41.4117L143.232 38.1597C144.671 36.7273 146.436 36.1162 147.895 35.8106C149.43 35.4287 151.08 35.1231 152.846 34.894C154.611 34.5884 156.453 34.3592 158.372 34.2064C160.368 33.9773 162.363 33.8627 164.359 33.8627Z" fill="#212421"/>
<path d="M47.9461 44.8774C47.9461 43.2303 47.7288 42.0637 47.2941 41.3774C46.8824 40.6911 46.1618 40.348 45.1324 40.348C44.8121 40.348 44.4804 40.3709 44.1373 40.4166C43.7941 40.4395 43.4624 40.4738 43.1422 40.5196V54.4509H38.0294V37.0196C38.4641 36.9052 38.9673 36.7908 39.5392 36.6764C40.134 36.5392 40.7516 36.4248 41.3922 36.3333C42.0556 36.2189 42.7304 36.1388 43.4167 36.0931C44.1029 36.0245 44.7778 35.9902 45.4412 35.9902C46.7451 35.9902 47.7974 36.1617 48.598 36.5049C49.4216 36.8251 50.0964 37.214 50.6226 37.6715C51.3545 37.1454 52.1896 36.7336 53.1275 36.4362C54.0882 36.1388 54.969 35.9902 55.7696 35.9902C57.2108 35.9902 58.3888 36.196 59.3039 36.6078C60.2418 36.9967 60.9853 37.5572 61.5343 38.2892C62.0833 39.0212 62.4608 39.8905 62.6667 40.897C62.8726 41.9035 62.9755 43.0245 62.9755 44.2598V54.4509H57.8628V44.8774C57.8628 43.2303 57.6455 42.0637 57.2108 41.3774C56.799 40.6911 56.0784 40.348 55.049 40.348C54.7745 40.348 54.3857 40.4166 53.8824 40.5539C53.402 40.6911 53.0016 40.8627 52.6814 41.0686C52.8416 41.5947 52.9445 42.1552 52.9902 42.75C53.0359 43.3219 53.0588 43.9395 53.0588 44.6029V54.4509H47.9461V44.8774ZM84.5006 45.3921C84.5006 46.8104 84.2948 48.1143 83.883 49.3039C83.4712 50.4705 82.8765 51.477 82.0987 52.3235C81.321 53.147 80.383 53.7876 79.2849 54.2451C78.2098 54.7025 76.9975 54.9313 75.6477 54.9313C74.321 54.9313 73.1085 54.7025 72.0104 54.2451C70.9353 53.7876 70.0088 53.147 69.231 52.3235C68.4533 51.477 67.8471 50.4705 67.4124 49.3039C66.9778 48.1143 66.7604 46.8104 66.7604 45.3921C66.7604 43.9739 66.9778 42.6813 67.4124 41.5147C67.87 40.348 68.4877 39.3529 69.2653 38.5294C70.0661 37.7058 71.0039 37.0653 72.0791 36.6078C73.1771 36.1503 74.3667 35.9215 75.6477 35.9215C76.9516 35.9215 78.1412 36.1503 79.2163 36.6078C80.3144 37.0653 81.2524 37.7058 82.03 38.5294C82.8079 39.3529 83.4141 40.348 83.8487 41.5147C84.2834 42.6813 84.5006 43.9739 84.5006 45.3921ZM79.2849 45.3921C79.2849 43.8137 78.9647 42.5784 78.3242 41.6862C77.7065 40.7712 76.8144 40.3137 75.6477 40.3137C74.481 40.3137 73.5775 40.7712 72.9369 41.6862C72.2965 42.5784 71.9761 43.8137 71.9761 45.3921C71.9761 46.9705 72.2965 48.2288 72.9369 49.1666C73.5775 50.0817 74.481 50.5392 75.6477 50.5392C76.8144 50.5392 77.7065 50.0817 78.3242 49.1666C78.9647 48.2288 79.2849 46.9705 79.2849 45.3921ZM92.8191 45.2892C92.8191 46.8676 93.1736 48.1372 93.8828 49.098C94.5919 50.0588 95.6442 50.5392 97.0397 50.5392C97.4972 50.5392 97.9203 50.5278 98.3093 50.5049C98.6981 50.4592 99.0184 50.4133 99.2701 50.3676V41.0686C98.9497 40.8627 98.5266 40.6911 98.0005 40.5539C97.4972 40.4166 96.9825 40.348 96.4564 40.348C94.0315 40.348 92.8191 41.9951 92.8191 45.2892ZM104.383 53.8676C103.925 54.0049 103.399 54.1421 102.804 54.2794C102.21 54.3937 101.58 54.4966 100.917 54.5882C100.277 54.6797 99.6132 54.7484 98.9269 54.7941C98.2635 54.8627 97.623 54.897 97.0054 54.897C95.5184 54.897 94.1917 54.6797 93.025 54.2451C91.8583 53.8104 90.8746 53.1927 90.074 52.3921C89.2733 51.5686 88.6556 50.5849 88.2211 49.4411C87.8093 48.2745 87.6034 46.9705 87.6034 45.5294C87.6034 44.0653 87.7864 42.75 88.1524 41.5833C88.5184 40.3937 89.0446 39.3872 89.7309 38.5637C90.4171 37.7402 91.2521 37.1111 92.2358 36.6764C93.2423 36.2418 94.386 36.0245 95.6671 36.0245C96.3762 36.0245 97.0054 36.0931 97.5544 36.2303C98.1262 36.3676 98.6981 36.5621 99.2701 36.8137V28.647L104.383 27.8235V53.8676ZM108.312 45.5637C108.312 43.9623 108.552 42.567 109.033 41.3774C109.536 40.165 110.188 39.1584 110.989 38.3578C111.789 37.5572 112.704 36.9509 113.734 36.5392C114.786 36.1274 115.861 35.9215 116.959 35.9215C119.521 35.9215 121.546 36.7107 123.033 38.2892C124.52 39.8447 125.263 42.1437 125.263 45.1862C125.263 45.4837 125.252 45.8153 125.229 46.1813C125.206 46.5245 125.183 46.8333 125.16 47.1078H113.562C113.677 48.1601 114.168 48.9951 115.038 49.6127C115.907 50.2303 117.074 50.5392 118.538 50.5392C119.476 50.5392 120.391 50.4592 121.283 50.299C122.198 50.116 122.941 49.8986 123.513 49.647L124.2 53.799C123.925 53.9362 123.559 54.0735 123.102 54.2107C122.644 54.348 122.129 54.4623 121.557 54.5539C121.008 54.6682 120.414 54.7598 119.773 54.8284C119.133 54.897 118.492 54.9313 117.852 54.9313C116.227 54.9313 114.809 54.6911 113.597 54.2107C112.407 53.7304 111.412 53.0784 110.611 52.2549C109.833 51.4084 109.25 50.4133 108.861 49.2696C108.495 48.1258 108.312 46.8905 108.312 45.5637ZM120.322 43.6078C120.299 43.1731 120.219 42.75 120.082 42.3382C119.967 41.9264 119.773 41.5604 119.499 41.2402C119.247 40.9199 118.915 40.6568 118.503 40.4509C118.114 40.2451 117.623 40.1421 117.028 40.1421C116.456 40.1421 115.964 40.2451 115.552 40.4509C115.141 40.6339 114.798 40.8856 114.523 41.2058C114.249 41.5261 114.031 41.9035 113.871 42.3382C113.734 42.75 113.631 43.1731 113.562 43.6078H120.322ZM140.086 40.9313C139.629 40.817 139.091 40.7026 138.474 40.5882C137.856 40.4509 137.192 40.3823 136.483 40.3823C136.163 40.3823 135.774 40.4166 135.317 40.4853C134.882 40.531 134.55 40.5882 134.322 40.6568V54.4509H129.209V37.3627C130.124 37.0424 131.199 36.7451 132.434 36.4705C133.692 36.1732 135.088 36.0245 136.621 36.0245C136.895 36.0245 137.227 36.0473 137.616 36.0931C138.005 36.116 138.393 36.1617 138.782 36.2303C139.171 36.2761 139.56 36.3447 139.949 36.4362C140.338 36.5049 140.67 36.5964 140.944 36.7107L140.086 40.9313Z" fill="#212421"/>
<path d="M50.1559 95.6275C48.0559 91.5098 45.9147 86.6922 43.7324 81.1745C41.5912 75.6569 39.5529 69.6451 37.6176 63.1392H47.3765C47.7882 64.7451 48.2618 66.4951 48.7971 68.3892C49.3735 70.2422 49.95 72.1363 50.5265 74.0716C51.1441 75.9657 51.7412 77.8187 52.3176 79.6304C52.9353 81.4422 53.5324 83.0892 54.1088 84.5716C54.6441 83.0892 55.2206 81.4422 55.8382 79.6304C56.4559 77.8187 57.0529 75.9657 57.6294 74.0716C58.2471 72.1363 58.8235 70.2422 59.3588 68.3892C59.9353 66.4951 60.4294 64.7451 60.8412 63.1392H70.3529C68.4176 69.6451 66.3588 75.6569 64.1765 81.1745C62.0353 86.6922 59.9147 91.5098 57.8147 95.6275H50.1559ZM87.0936 89.2039C87.9995 89.2039 88.8642 89.1834 89.6878 89.1422C90.5113 89.101 91.1701 89.0392 91.6642 88.9569V81.9775C91.2936 81.8951 90.7378 81.8128 89.9966 81.7304C89.2554 81.6481 88.576 81.6069 87.9583 81.6069C87.0936 81.6069 86.2701 81.6687 85.4878 81.7922C84.7466 81.8745 84.0878 82.0598 83.5113 82.3481C82.9348 82.6363 82.4819 83.0275 82.1525 83.5216C81.8231 84.0157 81.6583 84.6334 81.6583 85.3745C81.6583 86.8157 82.1319 87.8245 83.0789 88.401C84.0672 88.9363 85.4054 89.2039 87.0936 89.2039ZM86.3525 62.2745C89.0701 62.2745 91.3348 62.5834 93.1466 63.201C94.9583 63.8187 96.3995 64.7039 97.4701 65.8569C98.5819 67.0098 99.3642 68.4098 99.8172 70.0569C100.27 71.7039 100.497 73.5363 100.497 75.5539V94.701C99.1789 94.9892 97.3466 95.3187 94.9995 95.6892C92.6525 96.101 89.8113 96.3069 86.476 96.3069C84.376 96.3069 82.4613 96.1216 80.7319 95.751C79.0436 95.3804 77.5819 94.7834 76.3466 93.9598C75.1113 93.0951 74.1642 91.9834 73.5054 90.6245C72.8466 89.2657 72.5172 87.5981 72.5172 85.6216C72.5172 83.7275 72.8878 82.1216 73.6289 80.8039C74.4113 79.4863 75.4407 78.4363 76.7172 77.6539C77.9936 76.8716 79.4554 76.3157 81.1025 75.9863C82.7495 75.6157 84.4583 75.4304 86.2289 75.4304C87.423 75.4304 88.4731 75.4922 89.3789 75.6157C90.326 75.6981 91.0878 75.8216 91.6642 75.9863V75.1216C91.6642 73.5569 91.1907 72.301 90.2436 71.3539C89.2966 70.4069 87.6495 69.9334 85.3025 69.9334C83.7378 69.9334 82.1936 70.0569 80.6701 70.304C79.1466 70.5098 77.8289 70.8187 76.7172 71.2304L75.5436 63.8187C76.0789 63.6539 76.7378 63.4892 77.5201 63.3245C78.3436 63.1187 79.2289 62.9539 80.176 62.8304C81.1231 62.6657 82.1113 62.5422 83.1407 62.4598C84.2113 62.3363 85.2819 62.2745 86.3525 62.2745ZM107.274 79.3834C107.274 77.0363 107.645 74.8334 108.386 72.7745C109.168 70.6745 110.28 68.8628 111.721 67.3392C113.162 65.7745 114.912 64.5392 116.971 63.6334C119.03 62.7275 121.377 62.2745 124.012 62.2745C125.742 62.2745 127.327 62.4392 128.768 62.7687C130.21 63.0569 131.61 63.4892 132.968 64.0657L131.054 71.4157C130.189 71.0863 129.242 70.7981 128.212 70.551C127.183 70.3039 126.03 70.1804 124.754 70.1804C122.036 70.1804 119.998 71.0245 118.639 72.7128C117.321 74.401 116.662 76.6245 116.662 79.3834C116.662 82.3069 117.28 84.5716 118.515 86.1775C119.792 87.7834 121.995 88.5863 125.124 88.5863C126.236 88.5863 127.43 88.4834 128.707 88.2775C129.983 88.0716 131.157 87.7422 132.227 87.2892L133.524 94.8245C132.454 95.2775 131.115 95.6687 129.51 95.9981C127.904 96.3275 126.133 96.4922 124.198 96.4922C121.233 96.4922 118.68 96.0598 116.539 95.1951C114.398 94.2892 112.627 93.0745 111.227 91.551C109.868 90.0275 108.86 88.2363 108.201 86.1775C107.583 84.0775 107.274 81.8128 107.274 79.3834Z" fill="#212421"/>
</svg>
