<svg width="206" height="73" viewBox="0 0 206 73" fill="none" xmlns="http://www.w3.org/2000/svg">
<path d="M2.45056 53.9055C2.63998 58.8449 3.83884 70 8.63143 70L97.6627 70C99.6267 70 100.717 66.8924 99.4676 64.8337C99.4586 64.8194 99.4497 64.8046 99.4411 64.7904C97.9808 62.4267 95.8168 61.5496 94.3765 58.9571C92.907 56.3114 91.9983 52.9617 91.9511 49.5302C91.8401 41.5031 94.7671 31.9958 88.2588 27.6229C86.0982 26.1725 83.637 25.4295 81.893 23.054C80.3408 20.9405 79.6033 17.8539 79.0135 14.8628C78.4239 11.8713 77.8975 8.75463 76.6254 6.26732C73.7851 0.712358 67.6208 1.24417 64.1975 5.13568C62.0278 7.60159 59.1329 8.46638 56.4435 8.05587C53.2889 7.57448 52.5553 4.98156 50.0719 2.78394C45.4767 -1.28215 39.083 -0.952033 34.9101 4.15579C32.8461 6.68259 31.1203 10.4899 28.5983 12.1277C26.2276 13.6674 23.4584 11.8313 20.9308 11.9907C18.5247 12.1429 16.0559 13.2921 14.3788 15.8413C12.3003 17.3913 10.2966 19.0512 9.74441 20.6522C8.53968 24.1448 9.35227 27.3937 6.56949 27.6866C2.69612 30.3872 2.88316 31.2625 0.974399 35.0177C-1.79654 40.5109 2.19671 47.2821 2.45056 53.9055Z" fill="#DAEDFF"/>
<path d="M8.39496 73H206C205.977 71.8551 205.708 70.714 205.184 69.616C202.386 63.7533 193.448 61.231 188.852 56.2488C182.324 49.1721 190.578 38.7562 181.955 32.6246C177.431 29.4079 169.859 28.7575 163.026 28.9187C156.193 29.0794 149.18 29.8219 142.633 28.5831C130.846 26.3523 121.943 18.001 109.756 19.099C98.1636 20.1429 92.0725 29.3217 80.5828 30.7449C68.4437 32.2487 50.7272 31.1731 43.8935 29.4975C30.0069 28.4081 23.2574 33.6869 23.7002 38.0279C23.6822 41.076 23.7751 41.6465 19.6786 45.1509C15.5524 50.5114 7.13574 42.5338 2.25722 50.2072C-2.50162 57.6924 0.602875 66.5792 8.39496 73Z" fill="#B5E2B7"/>
<path d="M153.741 59.8225C155.429 59.8225 157.041 59.7842 158.577 59.7079C160.112 59.6315 161.34 59.5169 162.261 59.3641V46.4158C161.57 46.263 160.534 46.1103 159.152 45.9575C157.771 45.8046 156.504 45.7283 155.353 45.7283C153.741 45.7283 152.206 45.8429 150.747 46.0721C149.366 46.2249 148.138 46.5687 147.063 47.1033C145.988 47.638 145.144 48.3638 144.53 49.2805C143.916 50.1972 143.609 51.343 143.609 52.7181C143.609 55.3918 144.492 57.2633 146.257 58.3328C148.099 59.3259 150.594 59.8225 153.741 59.8225ZM152.359 9.86267C157.425 9.86267 161.647 10.4356 165.024 11.5815C168.402 12.7273 171.088 14.3697 173.084 16.5087C175.156 18.6476 176.615 21.2449 177.459 24.3006C178.303 27.3562 178.725 30.7557 178.725 34.4988V70.0207C176.269 70.5554 172.854 71.1665 168.478 71.8541C164.103 72.6179 158.807 72.9999 152.589 72.9999C148.675 72.9999 145.106 72.6562 141.882 71.9686C138.735 71.2811 136.01 70.1735 133.707 68.6456C131.404 67.0414 129.639 64.9789 128.411 62.458C127.183 59.937 126.569 56.8432 126.569 53.1764C126.569 49.6625 127.259 46.6832 128.641 44.2387C130.099 41.7941 132.018 39.8461 134.398 38.3948C136.777 36.9434 139.502 35.9121 142.573 35.3009C145.643 34.6134 148.828 34.2696 152.129 34.2696C154.355 34.2696 156.312 34.3842 158.001 34.6134C159.766 34.7662 161.186 34.9954 162.261 35.3009V33.6967C162.261 30.7938 161.062 25.943 159.296 24.186C157.531 22.429 154.979 21.436 152.1 20.7199C149.222 20.0037 146.343 19.889 142.745 19.1728C139.147 18.4567 132.059 18.098 130 17.4117L131.232 14.1597C132.671 12.7273 134.436 12.1162 135.895 11.8106C137.43 11.4287 139.08 11.1231 140.846 10.894C142.611 10.5884 144.453 10.3592 146.372 10.2064C148.368 9.97726 150.363 9.86267 152.359 9.86267Z" fill="#212421"/>
<path d="M35.9461 20.8774C35.9461 19.2303 35.7288 18.0637 35.2941 17.3774C34.8824 16.6911 34.1618 16.348 33.1324 16.348C32.8121 16.348 32.4804 16.3709 32.1373 16.4166C31.7941 16.4395 31.4624 16.4738 31.1422 16.5196V30.4509H26.0294V13.0196C26.4641 12.9052 26.9673 12.7908 27.5392 12.6764C28.134 12.5392 28.7516 12.4248 29.3922 12.3333C30.0556 12.2189 30.7304 12.1388 31.4167 12.0931C32.1029 12.0245 32.7778 11.9902 33.4412 11.9902C34.7451 11.9902 35.7974 12.1617 36.598 12.5049C37.4216 12.8251 38.0964 13.214 38.6226 13.6715C39.3545 13.1454 40.1896 12.7336 41.1275 12.4362C42.0882 12.1388 42.969 11.9902 43.7696 11.9902C45.2108 11.9902 46.3888 12.196 47.3039 12.6078C48.2418 12.9967 48.9853 13.5572 49.5343 14.2892C50.0833 15.0212 50.4608 15.8905 50.6667 16.897C50.8726 17.9035 50.9755 19.0245 50.9755 20.2598V30.4509H45.8628V20.8774C45.8628 19.2303 45.6455 18.0637 45.2108 17.3774C44.799 16.6911 44.0784 16.348 43.049 16.348C42.7745 16.348 42.3857 16.4166 41.8824 16.5539C41.402 16.6911 41.0016 16.8627 40.6814 17.0686C40.8416 17.5947 40.9445 18.1552 40.9902 18.75C41.0359 19.3219 41.0588 19.9395 41.0588 20.6029V30.4509H35.9461V20.8774ZM72.5006 21.3921C72.5006 22.8104 72.2948 24.1143 71.883 25.3039C71.4712 26.4705 70.8765 27.477 70.0987 28.3235C69.321 29.147 68.383 29.7876 67.2849 30.2451C66.2098 30.7025 64.9975 30.9313 63.6477 30.9313C62.321 30.9313 61.1085 30.7025 60.0104 30.2451C58.9353 29.7876 58.0088 29.147 57.231 28.3235C56.4533 27.477 55.8471 26.4705 55.4124 25.3039C54.9778 24.1143 54.7604 22.8104 54.7604 21.3921C54.7604 19.9739 54.9778 18.6813 55.4124 17.5147C55.87 16.348 56.4877 15.3529 57.2653 14.5294C58.0661 13.7058 59.0039 13.0653 60.0791 12.6078C61.1771 12.1503 62.3667 11.9215 63.6477 11.9215C64.9516 11.9215 66.1412 12.1503 67.2163 12.6078C68.3144 13.0653 69.2524 13.7058 70.03 14.5294C70.8079 15.3529 71.4141 16.348 71.8487 17.5147C72.2834 18.6813 72.5006 19.9739 72.5006 21.3921ZM67.2849 21.3921C67.2849 19.8137 66.9647 18.5784 66.3242 17.6862C65.7065 16.7712 64.8144 16.3137 63.6477 16.3137C62.481 16.3137 61.5775 16.7712 60.9369 17.6862C60.2965 18.5784 59.9761 19.8137 59.9761 21.3921C59.9761 22.9705 60.2965 24.2288 60.9369 25.1666C61.5775 26.0817 62.481 26.5392 63.6477 26.5392C64.8144 26.5392 65.7065 26.0817 66.3242 25.1666C66.9647 24.2288 67.2849 22.9705 67.2849 21.3921ZM80.8191 21.2892C80.8191 22.8676 81.1736 24.1372 81.8828 25.098C82.5919 26.0588 83.6442 26.5392 85.0397 26.5392C85.4972 26.5392 85.9203 26.5278 86.3093 26.5049C86.6981 26.4592 87.0184 26.4133 87.2701 26.3676V17.0686C86.9497 16.8627 86.5266 16.6911 86.0005 16.5539C85.4972 16.4166 84.9825 16.348 84.4564 16.348C82.0315 16.348 80.8191 17.9951 80.8191 21.2892ZM92.3828 29.8676C91.9252 30.0049 91.3991 30.1421 90.8044 30.2794C90.2095 30.3937 89.5805 30.4966 88.9171 30.5882C88.2766 30.6797 87.6132 30.7484 86.9269 30.7941C86.2635 30.8627 85.623 30.897 85.0054 30.897C83.5184 30.897 82.1917 30.6797 81.025 30.2451C79.8583 29.8104 78.8746 29.1927 78.074 28.3921C77.2733 27.5686 76.6556 26.5849 76.2211 25.4411C75.8093 24.2745 75.6034 22.9705 75.6034 21.5294C75.6034 20.0653 75.7864 18.75 76.1524 17.5833C76.5184 16.3937 77.0446 15.3872 77.7309 14.5637C78.4171 13.7402 79.2521 13.1111 80.2358 12.6764C81.2423 12.2418 82.386 12.0245 83.6671 12.0245C84.3762 12.0245 85.0054 12.0931 85.5544 12.2303C86.1262 12.3676 86.6981 12.5621 87.2701 12.8137V4.64702L92.3828 3.82349V29.8676ZM96.3123 21.5637C96.3123 19.9623 96.5525 18.567 97.0329 17.3774C97.5361 16.165 98.188 15.1584 98.9888 14.3578C99.7894 13.5572 100.704 12.9509 101.734 12.5392C102.786 12.1274 103.861 11.9215 104.959 11.9215C107.521 11.9215 109.546 12.7107 111.033 14.2892C112.52 15.8447 113.263 18.1437 113.263 21.1862C113.263 21.4837 113.252 21.8153 113.229 22.1813C113.206 22.5245 113.183 22.8333 113.16 23.1078H101.562C101.677 24.1601 102.168 24.9951 103.038 25.6127C103.907 26.2303 105.074 26.5392 106.538 26.5392C107.476 26.5392 108.391 26.4592 109.283 26.299C110.198 26.116 110.941 25.8986 111.513 25.647L112.2 29.799C111.925 29.9362 111.559 30.0735 111.102 30.2107C110.644 30.348 110.129 30.4623 109.557 30.5539C109.008 30.6682 108.414 30.7598 107.773 30.8284C107.133 30.897 106.492 30.9313 105.852 30.9313C104.227 30.9313 102.809 30.6911 101.597 30.2107C100.407 29.7304 99.4119 29.0784 98.6113 28.2549C97.8335 27.4084 97.2502 26.4133 96.8613 25.2696C96.4953 24.1258 96.3123 22.8905 96.3123 21.5637ZM108.322 19.6078C108.299 19.1731 108.219 18.75 108.082 18.3382C107.967 17.9264 107.773 17.5604 107.499 17.2402C107.247 16.9199 106.915 16.6568 106.503 16.4509C106.114 16.2451 105.623 16.1421 105.028 16.1421C104.456 16.1421 103.964 16.2451 103.552 16.4509C103.141 16.6339 102.798 16.8856 102.523 17.2058C102.249 17.5261 102.031 17.9035 101.871 18.3382C101.734 18.75 101.631 19.1731 101.562 19.6078H108.322ZM128.086 16.9313C127.629 16.817 127.091 16.7026 126.474 16.5882C125.856 16.4509 125.192 16.3823 124.483 16.3823C124.163 16.3823 123.774 16.4166 123.317 16.4853C122.882 16.531 122.55 16.5882 122.322 16.6568V30.4509H117.209V13.3627C118.124 13.0424 119.199 12.7451 120.434 12.4705C121.692 12.1732 123.088 12.0245 124.621 12.0245C124.895 12.0245 125.227 12.0473 125.616 12.0931C126.005 12.116 126.393 12.1617 126.782 12.2303C127.171 12.2761 127.56 12.3447 127.949 12.4362C128.338 12.5049 128.67 12.5964 128.944 12.7107L128.086 16.9313Z" fill="#212421"/>
<path d="M38.1559 71.6275C36.0559 67.5098 33.9147 62.6922 31.7324 57.1745C29.5912 51.6569 27.5529 45.6451 25.6176 39.1392H35.3765C35.7882 40.7451 36.2618 42.4951 36.7971 44.3892C37.3735 46.2422 37.95 48.1363 38.5265 50.0716C39.1441 51.9657 39.7412 53.8187 40.3176 55.6304C40.9353 57.4422 41.5324 59.0892 42.1088 60.5716C42.6441 59.0892 43.2206 57.4422 43.8382 55.6304C44.4559 53.8187 45.0529 51.9657 45.6294 50.0716C46.2471 48.1363 46.8235 46.2422 47.3588 44.3892C47.9353 42.4951 48.4294 40.7451 48.8412 39.1392H58.3529C56.4176 45.6451 54.3588 51.6569 52.1765 57.1745C50.0353 62.6922 47.9147 67.5098 45.8147 71.6275H38.1559ZM75.0936 65.2039C75.9995 65.2039 76.8642 65.1834 77.6878 65.1422C78.5113 65.101 79.1701 65.0392 79.6642 64.9569V57.9775C79.2936 57.8951 78.7378 57.8128 77.9966 57.7304C77.2554 57.6481 76.576 57.6069 75.9583 57.6069C75.0936 57.6069 74.2701 57.6687 73.4878 57.7922C72.7466 57.8745 72.0878 58.0598 71.5113 58.3481C70.9348 58.6363 70.4819 59.0275 70.1525 59.5216C69.8231 60.0157 69.6583 60.6334 69.6583 61.3745C69.6583 62.8157 70.1319 63.8245 71.0789 64.401C72.0672 64.9363 73.4054 65.2039 75.0936 65.2039ZM74.3525 38.2745C77.0701 38.2745 79.3348 38.5834 81.1466 39.201C82.9583 39.8187 84.3995 40.7039 85.4701 41.8569C86.5819 43.0098 87.3642 44.4098 87.8172 46.0569C88.2701 47.7039 88.4966 49.5363 88.4966 51.5539V70.701C87.1789 70.9892 85.3466 71.3187 82.9995 71.6892C80.6525 72.101 77.8113 72.3069 74.476 72.3069C72.376 72.3069 70.4613 72.1216 68.7319 71.751C67.0436 71.3804 65.5819 70.7834 64.3466 69.9598C63.1113 69.0951 62.1642 67.9834 61.5054 66.6245C60.8466 65.2657 60.5172 63.5981 60.5172 61.6216C60.5172 59.7275 60.8878 58.1216 61.6289 56.8039C62.4113 55.4863 63.4407 54.4363 64.7172 53.6539C65.9936 52.8716 67.4554 52.3157 69.1025 51.9863C70.7495 51.6157 72.4583 51.4304 74.2289 51.4304C75.423 51.4304 76.4731 51.4922 77.3789 51.6157C78.326 51.6981 79.0878 51.8216 79.6642 51.9863V51.1216C79.6642 49.5569 79.1907 48.301 78.2436 47.3539C77.2966 46.4069 75.6495 45.9334 73.3025 45.9334C71.7378 45.9334 70.1936 46.0569 68.6701 46.304C67.1466 46.5098 65.8289 46.8187 64.7172 47.2304L63.5436 39.8187C64.0789 39.6539 64.7378 39.4892 65.5201 39.3245C66.3436 39.1187 67.2289 38.9539 68.176 38.8304C69.1231 38.6657 70.1113 38.5422 71.1407 38.4598C72.2113 38.3363 73.2819 38.2745 74.3525 38.2745ZM95.2742 55.3834C95.2742 53.0363 95.6448 50.8334 96.386 48.7745C97.1683 46.6745 98.2801 44.8628 99.7213 43.3392C101.162 41.7745 102.912 40.5392 104.971 39.6334C107.03 38.7275 109.377 38.2745 112.012 38.2745C113.742 38.2745 115.327 38.4392 116.768 38.7687C118.21 39.0569 119.61 39.4892 120.968 40.0657L119.054 47.4157C118.189 47.0863 117.242 46.7981 116.212 46.551C115.183 46.3039 114.03 46.1804 112.754 46.1804C110.036 46.1804 107.998 47.0245 106.639 48.7128C105.321 50.401 104.662 52.6245 104.662 55.3834C104.662 58.3069 105.28 60.5716 106.515 62.1775C107.792 63.7834 109.995 64.5863 113.124 64.5863C114.236 64.5863 115.43 64.4834 116.707 64.2775C117.983 64.0716 119.157 63.7422 120.227 63.2892L121.524 70.8245C120.454 71.2775 119.115 71.6687 117.51 71.9981C115.904 72.3275 114.133 72.4922 112.198 72.4922C109.233 72.4922 106.68 72.0598 104.539 71.1951C102.398 70.2892 100.627 69.0745 99.2272 67.551C97.8683 66.0275 96.8595 64.2363 96.2007 62.1775C95.5831 60.0775 95.2742 57.8128 95.2742 55.3834Z" fill="#212421"/>
</svg>
