<svg width="93" height="43" viewBox="0 0 93 43" fill="none" xmlns="http://www.w3.org/2000/svg">
<path d="M77.5966 34.1566C78.6113 34.1566 79.5799 34.1338 80.5025 34.0881C81.425 34.0424 82.163 33.9738 82.7165 33.8824V26.1345C82.3013 26.0431 81.6786 25.9517 80.8484 25.8603C80.0181 25.7688 79.2571 25.7232 78.5652 25.7232C77.5966 25.7232 76.674 25.7917 75.7977 25.9289C74.9675 26.0203 74.2295 26.226 73.5837 26.5459C72.9379 26.8659 72.4306 27.3002 72.0616 27.8487C71.6925 28.3972 71.5081 29.0828 71.5081 29.9056C71.5081 31.5055 72.0385 32.6253 73.0994 33.2653C74.2064 33.8595 75.7054 34.1566 77.5966 34.1566ZM76.7663 4.26233C79.8106 4.26233 82.3474 4.60516 84.377 5.2908C86.4065 5.97645 88.0208 6.95921 89.2201 8.2391C90.4655 9.51897 91.3418 11.0731 91.8492 12.9015C92.3566 14.7299 92.6103 16.764 92.6103 19.0038V40.2589C91.1343 40.5789 89.0817 40.9446 86.4526 41.356C83.8235 41.813 80.6408 42.0416 76.9047 42.0416C74.5523 42.0416 72.4075 41.8359 70.4703 41.4245C68.5791 41.0131 66.9417 40.3504 65.5579 39.4361C64.1742 38.4762 63.1133 37.2421 62.3753 35.7336C61.6373 34.2252 61.2683 32.374 61.2683 30.1799C61.2683 28.0772 61.6834 26.2946 62.5137 24.8318C63.3901 23.3691 64.5432 22.2035 65.9731 21.335C67.4029 20.4665 69.0404 19.8495 70.8854 19.4837C72.7304 19.0724 74.6446 18.8667 76.628 18.8667C77.9656 18.8667 79.1418 18.9352 80.1565 19.0724C81.2174 19.1638 82.0707 19.3009 82.7165 19.4837V18.5238C82.7165 16.7868 81.9958 13.8843 80.9349 12.8329C79.874 11.7816 78.3403 11.1875 76.6107 10.7589C74.881 10.3304 73.1513 10.2618 70.9892 9.83323C68.8271 9.4047 64.5675 9.19006 63.3303 8.77942L64.0704 6.83351C64.9353 5.97645 65.9961 5.61077 66.8725 5.42793C67.795 5.19938 68.7867 5.01655 69.8476 4.87942C70.9085 4.69657 72.0155 4.55945 73.1686 4.46803C74.3679 4.33089 75.567 4.26233 76.7663 4.26233Z" fill="#EFF6EF"/>
<path d="M6.81164 10.8532C6.81164 9.86764 6.68105 9.16955 6.41986 8.75891C6.17243 8.34826 5.73941 8.14294 5.12082 8.14294C4.92837 8.14294 4.72905 8.15663 4.52285 8.184C4.31665 8.19769 4.11732 8.21823 3.92488 8.2456V16.5817H0.852539V6.15131C1.11372 6.08288 1.41614 6.01443 1.75981 5.94599C2.11721 5.86386 2.48837 5.79543 2.87327 5.74067C3.27192 5.67223 3.67744 5.62432 4.08983 5.59695C4.50223 5.55588 4.90775 5.53535 5.3064 5.53535C6.08995 5.53535 6.72229 5.63801 7.20341 5.84333C7.69828 6.03496 8.10381 6.26767 8.41997 6.54143C8.85983 6.2266 9.36164 5.98022 9.92521 5.80227C10.5026 5.62432 11.0318 5.53535 11.5129 5.53535C12.379 5.53535 13.0869 5.65854 13.6368 5.90493C14.2003 6.13762 14.6471 6.47299 14.977 6.91101C15.307 7.34902 15.5338 7.86918 15.6575 8.47145C15.7812 9.0737 15.8431 9.74445 15.8431 10.4836V16.5817H12.7707V10.8532C12.7707 9.86764 12.6402 9.16955 12.379 8.75891C12.1315 8.34826 11.6985 8.14294 11.0799 8.14294C10.915 8.14294 10.6813 8.184 10.3788 8.26613C10.0902 8.34826 9.84958 8.45092 9.65716 8.57412C9.75341 8.88892 9.81527 9.22433 9.84273 9.58019C9.8702 9.92242 9.88397 10.292 9.88397 10.6889V16.5817H6.81164V10.8532ZM28.7779 11.1612C28.7779 12.0098 28.6542 12.79 28.4067 13.5018C28.1593 14.1999 27.8019 14.8022 27.3345 15.3087C26.8672 15.8015 26.3035 16.1847 25.6437 16.4585C24.9976 16.7322 24.2691 16.8691 23.458 16.8691C22.6608 16.8691 21.9322 16.7322 21.2723 16.4585C20.6263 16.1847 20.0695 15.8015 19.6021 15.3087C19.1348 14.8022 18.7705 14.1999 18.5093 13.5018C18.2482 12.79 18.1175 12.0098 18.1175 11.1612C18.1175 10.3125 18.2482 9.53913 18.5093 8.84103C18.7843 8.14294 19.1554 7.5475 19.6227 7.05473C20.1039 6.56196 20.6675 6.17869 21.3136 5.90493C21.9734 5.63117 22.6882 5.49428 23.458 5.49428C24.2416 5.49428 24.9564 5.63117 25.6025 5.90493C26.2623 6.17869 26.826 6.56196 27.2933 7.05473C27.7607 7.5475 28.125 8.14294 28.3861 8.84103C28.6473 9.53913 28.7779 10.3125 28.7779 11.1612ZM25.6437 11.1612C25.6437 10.2167 25.4513 9.47753 25.0664 8.94369C24.6952 8.39614 24.1591 8.12241 23.458 8.12241C22.7569 8.12241 22.214 8.39614 21.8291 8.94369C21.4442 9.47753 21.2517 10.2167 21.2517 11.1612C21.2517 12.1057 21.4442 12.8585 21.8291 13.4197C22.214 13.9673 22.7569 14.241 23.458 14.241C24.1591 14.241 24.6952 13.9673 25.0664 13.4197C25.4513 12.8585 25.6437 12.1057 25.6437 11.1612ZM33.7766 11.0996C33.7766 12.0441 33.9897 12.8038 34.4158 13.3787C34.8419 13.9536 35.4743 14.241 36.3128 14.241C36.5877 14.241 36.842 14.2342 37.0758 14.2205C37.3094 14.1931 37.5019 14.1657 37.6531 14.1383V8.57412C37.4606 8.45092 37.2063 8.34826 36.8902 8.26613C36.5877 8.184 36.2784 8.14294 35.9623 8.14294C34.5051 8.14294 33.7766 9.12848 33.7766 11.0996ZM40.7255 16.2326C40.4505 16.3148 40.1343 16.3969 39.777 16.479C39.4195 16.5474 39.0415 16.609 38.6429 16.6638C38.2579 16.7186 37.8593 16.7597 37.4469 16.787C37.0482 16.8281 36.6634 16.8486 36.2922 16.8486C35.3986 16.8486 34.6014 16.7186 33.9003 16.4585C33.1993 16.1984 32.6081 15.8288 32.127 15.3497C31.6459 14.857 31.2747 14.2684 31.0136 13.584C30.7661 12.8859 30.6424 12.1057 30.6424 11.2433C30.6424 10.3672 30.7524 9.58019 30.9723 8.8821C31.1922 8.17031 31.5084 7.56804 31.9208 7.07526C32.3332 6.58249 32.835 6.20607 33.4261 5.94599C34.0309 5.68592 34.7182 5.55588 35.488 5.55588C35.9141 5.55588 36.2922 5.59695 36.6221 5.67907C36.9657 5.7612 37.3094 5.87755 37.6531 6.02812V1.14146L40.7255 0.648682V16.2326ZM43.0867 11.2638C43.0867 10.3056 43.2311 9.47072 43.5198 8.75891C43.8221 8.03344 44.2139 7.43115 44.6951 6.95207C45.1762 6.47299 45.7261 6.11025 46.3447 5.86386C46.9769 5.61748 47.6231 5.49428 48.2829 5.49428C49.8225 5.49428 51.039 5.96653 51.9326 6.91101C52.8261 7.8418 53.2729 9.21743 53.2729 11.038C53.2729 11.216 53.266 11.4144 53.2523 11.6334C53.2385 11.8387 53.2247 12.0235 53.211 12.1878H46.2416C46.3103 12.8175 46.6058 13.3171 47.1282 13.6866C47.6505 14.0562 48.3516 14.241 49.2314 14.241C49.795 14.241 50.3449 14.1931 50.881 14.0973C51.4308 13.9878 51.8776 13.8577 52.2213 13.7072L52.6337 16.1916C52.4687 16.2737 52.2487 16.3558 51.9738 16.438C51.6989 16.5201 51.3896 16.5885 51.046 16.6433C50.716 16.7117 50.3586 16.7665 49.9737 16.8075C49.5888 16.8486 49.2039 16.8691 48.819 16.8691C47.843 16.8691 46.9907 16.7254 46.2622 16.438C45.5473 16.1505 44.9494 15.7604 44.4683 15.2676C44.0009 14.7611 43.6503 14.1657 43.4167 13.4813C43.1967 12.7969 43.0867 12.0578 43.0867 11.2638ZM50.3036 10.0935C50.2899 9.8334 50.2418 9.58019 50.1593 9.33381C50.0905 9.08742 49.9737 8.86838 49.8088 8.67678C49.6575 8.48517 49.4582 8.32773 49.2108 8.20454C48.9771 8.08134 48.6815 8.01975 48.3242 8.01975C47.9805 8.01975 47.6849 8.08134 47.4375 8.20454C47.1901 8.31404 46.9839 8.46464 46.8189 8.65624C46.654 8.84785 46.5233 9.07371 46.4271 9.33381C46.3447 9.58019 46.2828 9.8334 46.2416 10.0935H50.3036ZM62.1803 8.49199C61.9053 8.42357 61.5823 8.3551 61.2111 8.28666C60.84 8.20454 60.4413 8.16347 60.0152 8.16347C59.8227 8.16347 59.589 8.184 59.3141 8.22507C59.0529 8.25244 58.8536 8.28666 58.7162 8.32773V16.5817H55.6438V6.35664C56.1936 6.16501 56.8398 5.98706 57.5821 5.8228C58.3381 5.64485 59.1766 5.55588 60.0977 5.55588C60.2626 5.55588 60.4619 5.56957 60.6957 5.59695C60.9293 5.61064 61.163 5.63801 61.3967 5.67907C61.6304 5.70645 61.864 5.74751 62.0978 5.80227C62.3315 5.84333 62.5308 5.89809 62.6958 5.96652L62.1803 8.49199Z" fill="#EFF6EF"/>
<path d="M8.13942 41.2204C6.8775 38.7565 5.59083 35.8738 4.27941 32.5722C2.99274 29.2706 1.76793 25.6734 0.60498 21.7805H6.46923C6.71666 22.7414 7.00122 23.7885 7.32288 24.9219C7.66929 26.0306 8.01571 27.164 8.36212 28.322C8.73327 29.4554 9.09205 30.5642 9.43847 31.6483C9.80962 32.7324 10.1684 33.7179 10.5148 34.6049C10.8365 33.7179 11.1829 32.7324 11.554 31.6483C11.9252 30.5642 12.284 29.4554 12.6304 28.322C13.0016 27.164 13.348 26.0306 13.6696 24.9219C14.016 23.7885 14.313 22.7414 14.5604 21.7805H20.2762C19.1132 25.6734 17.8761 29.2706 16.5646 32.5722C15.278 35.8738 14.0037 38.7565 12.7417 41.2204H8.13942ZM30.336 37.3767C30.8803 37.3767 31.3999 37.3644 31.8948 37.3398C32.3897 37.3151 32.7856 37.2782 33.0825 37.2289V33.0527C32.8598 33.0034 32.5258 32.9541 32.0804 32.9048C31.635 32.8556 31.2267 32.8309 30.8556 32.8309C30.336 32.8309 29.8411 32.8679 29.371 32.9418C28.9256 32.9911 28.5297 33.1019 28.1833 33.2744C27.8369 33.4469 27.5647 33.6809 27.3667 33.9766C27.1688 34.2723 27.0698 34.6419 27.0698 35.0853C27.0698 35.9477 27.3544 36.5513 27.9235 36.8963C28.5173 37.2166 29.3215 37.3767 30.336 37.3767ZM29.8906 21.2631C31.5237 21.2631 32.8846 21.4479 33.9733 21.8174C35.062 22.187 35.928 22.7167 36.5714 23.4066C37.2394 24.0965 37.7096 24.9342 37.9818 25.9198C38.2539 26.9053 38.39 28.0017 38.39 29.209V40.666C37.5982 40.8385 36.4971 41.0356 35.0868 41.2573C33.6764 41.5037 31.969 41.6269 29.9648 41.6269C28.7029 41.6269 27.5523 41.516 26.5131 41.2943C25.4986 41.0725 24.6202 40.7153 23.8779 40.2225C23.1356 39.7051 22.5665 39.0399 22.1706 38.2268C21.7747 37.4137 21.5767 36.4158 21.5767 35.2332C21.5767 34.0998 21.7994 33.1389 22.2448 32.3505C22.7149 31.562 23.3335 30.9337 24.1006 30.4656C24.8676 29.9975 25.746 29.6648 26.7358 29.4677C27.7255 29.246 28.7524 29.1351 29.8164 29.1351C30.5339 29.1351 31.1649 29.1721 31.7092 29.246C32.2783 29.2953 32.7361 29.3692 33.0825 29.4677V28.9503C33.0825 28.0141 32.798 27.2626 32.2289 26.6959C31.6598 26.1292 30.67 25.8459 29.2596 25.8459C28.3194 25.8459 27.3915 25.9198 26.476 26.0676C25.5604 26.1908 24.7686 26.3756 24.1006 26.622L23.3954 22.187C23.717 22.0885 24.1129 21.9899 24.5831 21.8913C25.0779 21.7682 25.6099 21.6696 26.179 21.5957C26.7481 21.4971 27.342 21.4232 27.9606 21.3739C28.6039 21.3 29.2472 21.2631 29.8906 21.2631ZM42.4628 31.5004C42.4628 30.096 42.6855 28.7779 43.1309 27.5459C43.601 26.2893 44.2691 25.2052 45.1352 24.2936C46.0012 23.3573 47.0528 22.6182 48.29 22.0761C49.5271 21.5341 50.9375 21.2631 52.5211 21.2631C53.5604 21.2631 54.513 21.3616 55.379 21.5587C56.2451 21.7312 57.0863 21.9899 57.9029 22.3348L56.7523 26.7328C56.2327 26.5357 55.6636 26.3633 55.045 26.2154C54.4264 26.0676 53.7336 25.9937 52.9665 25.9937C51.3334 25.9937 50.1086 26.4988 49.2921 27.509C48.5003 28.5191 48.1044 29.8496 48.1044 31.5004C48.1044 33.2498 48.4755 34.6049 49.2179 35.5658C49.9849 36.5267 51.3087 37.0072 53.1892 37.0072C53.8573 37.0072 54.5749 36.9456 55.3419 36.8224C56.109 36.6992 56.8142 36.5021 57.4575 36.231L58.2369 40.7399C57.5936 41.0109 56.7894 41.245 55.8244 41.4421C54.8594 41.6392 53.7954 41.7378 52.6325 41.7378C50.8509 41.7378 49.3168 41.4791 48.0302 40.9617C46.7435 40.4196 45.6795 39.6928 44.8382 38.7811C44.0217 37.8695 43.4155 36.7977 43.0196 35.5658C42.6484 34.3092 42.4628 32.9541 42.4628 31.5004Z" fill="#EFF6EF"/>
</svg>
