<svg width="637" height="510" viewBox="0 0 637 510" fill="none" xmlns="http://www.w3.org/2000/svg">
<path d="M20.7524 365.433C21.8927 395.069 29.1098 462 57.9612 462H593.929C605.753 462 612.315 443.354 604.795 431.002C604.741 430.916 604.687 430.828 604.635 430.742C595.844 416.56 582.817 411.298 574.146 395.743C565.3 379.869 559.83 359.77 559.546 339.181C558.877 291.019 576.498 233.975 537.318 207.737C524.311 199.035 509.495 194.577 498.996 180.324C489.651 167.643 485.212 149.123 481.661 131.177C478.112 113.228 474.943 94.5278 467.285 79.6039C450.186 46.2741 413.077 49.465 392.469 72.8141C379.407 87.6096 361.98 92.7982 345.79 90.3352C326.799 87.4469 322.383 71.8894 307.433 58.7036C279.77 34.307 241.28 36.2878 216.159 66.9347C203.734 82.0955 193.344 104.939 178.162 114.766C163.89 124.005 147.22 112.988 132.003 113.944C117.519 114.857 102.657 121.753 92.5603 137.048C80.0479 146.348 67.9858 156.307 64.6614 165.913C57.4089 186.869 62.3007 206.362 45.5483 208.12C22.2307 224.323 23.3566 229.575 11.8659 252.106C-4.81512 285.065 19.2242 325.693 20.7524 365.433Z" fill="#DAEDFF"/>
<path d="M552.834 422.262C552.834 422.262 616.589 353.174 615.359 240.156C614.128 127.138 598.959 118.168 590.554 114.61C582.148 111.052 576.614 132.687 576.614 132.687C576.614 132.687 566.158 6.77449 527.414 0.137304C488.669 -6.50194 475.185 229.844 475.185 229.844C475.185 229.844 453.045 235.207 450.562 262.224C448.079 289.24 482.109 448.042 552.834 422.262Z" fill="#6FC971"/>
<path d="M463.978 311.926C481.196 311.102 488.577 279.726 488.577 279.726C488.577 279.726 499.236 353.174 520.556 346.914C541.877 340.654 545.156 297.46 545.156 297.46C545.156 297.46 564.016 341.624 585.337 325.951C596.513 317.733 607.236 286.969 614.913 259.552C609.317 361.019 552.834 422.262 552.834 422.262C502.304 440.679 470.51 364.888 457.376 310.246C459.573 311.407 461.788 312.031 463.978 311.926Z" fill="#6FC971"/>
<path d="M527.704 442.928C528.747 442.928 529.593 442.079 529.593 441.03V65.6558C529.593 64.6067 528.747 63.7554 527.704 63.7554C526.662 63.7554 525.816 64.6067 525.816 65.6558V441.03C525.816 442.079 526.662 442.928 527.704 442.928Z" fill="#405C2F"/>
<path d="M517.704 33.7994C504.771 61.9703 484.255 229.844 484.255 229.844C484.255 229.844 470.545 233.164 463.058 251.922C458.381 263.642 456.78 288.42 456.237 305.361C451.799 285.678 449.906 269.355 450.562 262.224C453.045 235.207 475.186 229.844 475.186 229.844C475.186 229.844 488.669 -6.50194 527.414 0.137304C533.528 1.18441 538.937 5.20795 543.712 11.235C535.898 12.5851 525.136 17.6104 517.704 33.7994Z" fill="#B5E2B7"/>
<path d="M144.187 408.646C144.187 408.646 192.473 356.319 191.541 270.722C190.611 185.127 179.121 178.333 172.755 175.637C166.389 172.943 162.197 189.33 162.197 189.33C162.197 189.33 154.28 93.9648 124.934 88.9375C95.5896 83.9122 85.3779 262.914 85.3779 262.914C85.3779 262.914 68.6098 266.975 66.7289 287.437C64.8481 307.899 90.621 428.17 144.187 408.646Z" fill="#6FC971"/>
<path d="M97.8004 292.641C97.8004 292.641 104.011 345.269 123.725 342.377C143.439 339.485 147.484 268.187 147.484 268.187C147.484 268.187 151.211 320.901 170.034 324.003C176.728 325.108 183.366 316.772 189.146 305.576C179.535 370.29 144.187 408.646 144.187 408.646C106.992 422.204 83.202 368.359 72.7629 327.328C94.9688 335.678 97.8004 292.641 97.8004 292.641Z" fill="#6FC971"/>
<path d="M125.155 424.299C125.946 424.299 126.585 423.655 126.585 422.86V138.56C126.585 137.766 125.946 137.121 125.155 137.121C124.364 137.121 123.725 137.766 123.725 138.56V422.86C123.725 423.655 124.364 424.299 125.155 424.299Z" fill="#212421"/>
<path d="M111.651 131.02C102.335 175.324 95.2435 265.371 95.2435 265.371C95.2435 265.371 81.8396 273.457 76.2502 286.87C72.5622 295.723 75.5864 325.967 78.0696 345.514C69.745 320.396 65.9669 295.725 66.7291 287.437C68.6099 266.975 85.378 262.914 85.378 262.914C85.378 262.914 95.5897 83.9122 124.934 88.9375C127.159 89.3188 129.259 90.2258 131.242 91.5656C124.864 96.2734 116.718 106.918 111.651 131.02Z" fill="#B5E2B7"/>
<path d="M203.544 420.743L204.642 413.564C203.808 413.434 120.297 400.928 39.6386 425.665L41.7449 432.614C120.783 408.373 202.724 420.615 203.544 420.743Z" fill="#5B3132"/>
<path d="M41.0872 430.443C120.004 406.36 201.681 418.558 202.499 418.684L203.31 413.376C204.109 413.486 204.585 413.556 204.642 413.564L203.544 420.743C202.724 420.615 120.783 408.374 41.7449 432.614L41.0872 430.443Z" fill="#331D1F"/>
<path d="M208.445 436.905L206.953 397.127L199.739 397.399L201.23 437.179L208.445 436.905Z" fill="#5B3132"/>
<path d="M170.796 436.528L169.303 396.75L162.088 397.022L163.58 436.802L170.796 436.528Z" fill="#5B3132"/>
<path d="M129.095 435.275L127.601 395.495L120.385 395.767L121.879 435.549L129.095 435.275Z" fill="#5B3132"/>
<path d="M95.6879 436.973L87.5088 398.026L80.4462 399.529L88.6254 438.476L95.6879 436.973Z" fill="#5B3132"/>
<path d="M61.4695 443.977L48.1804 406.483L41.3781 408.922L54.6692 446.416L61.4695 443.977Z" fill="#5B3132"/>
<path d="M205.375 397.185L206.953 397.127L208.445 436.905L206.562 436.977L205.375 397.185" fill="#331D1F"/>
<path d="M167.614 396.814L169.303 396.75L170.796 436.528L169.216 436.588L167.614 396.814" fill="#331D1F"/>
<path d="M126.483 395.538L127.601 395.495L129.095 435.275L127.462 435.336L126.483 395.538Z" fill="#331D1F"/>
<path d="M85.9701 398.354L87.5088 398.026L95.6879 436.973L93.9689 437.338L85.9701 398.354Z" fill="#331D1F"/>
<path d="M47.1519 406.852L48.1804 406.483L61.4695 443.977L59.8345 444.563L47.1519 406.852Z" fill="#331D1F"/>
<path d="M165.182 399.384C165.227 400.619 165.27 401.854 165.315 403.088C165.328 403.439 164.787 403.433 164.775 403.082C164.729 401.85 164.686 400.613 164.641 399.38C164.629 399.028 165.17 399.034 165.182 399.385" fill="#331D1F"/>
<path d="M587.77 446.092L591.142 439.671C590.396 439.274 515.543 399.982 431.278 396.82L431.009 404.08C513.582 407.176 587.038 445.705 587.77 446.092Z" fill="#5B3132"/>
<path d="M431.093 401.812C513.502 405.018 586.722 443.414 587.453 443.804L589.946 439.055C590.665 439.42 591.091 439.642 591.142 439.671L587.77 446.092C587.038 445.704 513.582 407.176 431.009 404.08L431.093 401.812" fill="#331D1F"/>
<path d="M587.15 462.98L598.67 424.898L591.763 422.782L580.242 460.865L587.15 462.98Z" fill="#5B3132"/>
<path d="M551.692 450.237L563.214 412.156L556.305 410.039L544.785 448.12L551.692 450.237Z" fill="#5B3132"/>
<path d="M512.692 435.332L524.211 397.249L517.304 395.134L505.785 433.218L512.692 435.332Z" fill="#5B3132"/>
<path d="M480.57 425.948L485.501 386.45L478.338 385.547L473.407 425.043L480.57 425.948Z" fill="#5B3132"/>
<path d="M597.159 424.435L598.67 424.898L587.15 462.98L585.345 462.427L597.159 424.435Z" fill="#331D1F"/>
<path d="M561.594 411.659L563.214 412.156L551.692 450.237L550.181 449.773L561.594 411.659Z" fill="#331D1F"/>
<path d="M523.142 396.921L524.211 397.249L512.692 435.332L511.129 434.854L523.142 396.921Z" fill="#331D1F"/>
<path d="M483.941 386.254L485.501 386.45L480.57 425.948L478.826 425.727L483.941 386.254Z" fill="#331D1F"/>
<path d="M448.488 399.57C449.624 399.821 450.744 400.145 451.838 400.541C452.166 400.658 451.986 401.174 451.656 401.054C450.562 400.658 449.443 400.335 448.306 400.083L448.142 399.735L448.488 399.57Z" fill="#331D1F"/>
<path d="M446.929 400.256L446.918 400.246L446.943 400.268L447 400.312L447.121 400.392L447.183 400.427L447.17 400.421L447.199 400.435L447.341 400.492L447.478 400.536L447.51 400.543L447.497 400.542L447.568 400.554L447.863 400.571L448.046 400.664L448.111 400.864L448.019 401.047L447.818 401.115C447.591 401.121 447.359 401.08 447.144 401.002C446.911 400.913 446.706 400.781 446.521 400.612L446.456 400.412L446.548 400.229L446.747 400.163L446.929 400.255" fill="#331D1F"/>
<path d="M443.61 388.087C443.774 390.216 443.862 392.354 443.862 394.489C443.862 396.367 444.012 398.473 443.213 400.221C443.069 400.539 442.557 400.359 442.702 400.04C443.479 398.339 443.321 396.272 443.321 394.444C443.321 392.358 443.237 390.27 443.077 388.19C443.051 387.844 443.583 387.738 443.61 388.087" fill="#331D1F"/>
<path d="M440.715 392.321L441.096 391.95L441.295 391.884L441.477 391.976L441.543 392.176L441.451 392.36L441.071 392.731L440.871 392.797L440.688 392.706L440.623 392.504L440.715 392.321" fill="#331D1F"/>
<path d="M440.893 384.941C440.799 390.406 440.924 395.87 441.272 401.322C441.295 401.668 440.764 401.773 440.742 401.425C440.389 395.924 440.258 390.41 440.352 384.898C440.358 384.548 440.899 384.591 440.893 384.941" fill="#331D1F"/>
<path d="M442.582 392.877C442.555 394.384 442.532 395.893 442.507 397.401C442.5 397.752 441.952 397.707 441.958 397.356C441.985 395.847 442.008 394.341 442.033 392.834C442.039 392.483 442.586 392.527 442.582 392.877" fill="#331D1F"/>
<path d="M436.666 399.432C436.033 399.257 435.4 399.082 434.765 398.908L434.601 398.56L434.947 398.393C435.58 398.568 436.216 398.743 436.849 398.919L437.013 399.267L436.666 399.432Z" fill="#331D1F"/>
<path d="M434.523 399.64C434.773 399.642 435.023 399.645 435.273 399.648L435.455 399.741L435.519 399.94L435.228 400.19C434.978 400.188 434.728 400.184 434.478 400.182L434.296 400.089L434.23 399.889L434.523 399.64" fill="#331D1F"/>
<path d="M259.732 392.102L260.751 391.977V391.983L260.98 393.832L259.302 393.046C256.913 391.929 253.922 391.1 250.225 391.098C249.402 391.098 248.543 391.142 247.648 391.23C244.591 391.531 241.696 392.989 239.295 394.703L237.678 395.858V393.86V393.821L237.68 393.78C237.686 393.716 238.1 388.499 240.575 382.07C243.048 375.649 247.607 367.973 255.958 363.169L256.294 362.977L267.159 365.238L266.206 366.533L266.157 366.603C265.598 367.411 260.584 374.998 260.586 387.887C260.586 389.208 260.637 390.587 260.754 392.02L259.732 392.102L260.75 391.976L259.732 392.102L258.711 392.187C258.591 390.698 258.537 389.264 258.537 387.887C258.539 373.549 264.477 365.419 264.559 365.308L265.383 365.92L265.176 366.928L256.259 365.073L256.466 364.063L256.974 364.96C249.18 369.437 244.857 376.657 242.484 382.816C241.3 385.89 240.608 388.689 240.212 390.709C240.015 391.721 239.892 392.537 239.819 393.096C239.782 393.376 239.757 393.592 239.743 393.735L239.722 393.943L238.702 393.86H239.727V393.865H238.702L238.108 393.024C240.69 391.183 243.876 389.539 247.447 389.18C248.408 389.083 249.334 389.038 250.225 389.038C254.229 389.038 257.533 389.945 260.166 391.177L259.734 392.111L258.718 392.239L258.716 392.231L258.715 392.21L258.713 392.188L259.733 392.103" fill="#131112"/>
<path d="M252.869 184.327L331.183 126.023L409.498 184.327L452.738 255.902V410.451L452.824 410.45V432.773H224.08C223.533 432.804 222.959 432.843 222.436 432.864C218.472 433.024 214.171 432.969 209.629 432.773V255.902L252.869 184.327Z" fill="#F03648"/>
<path d="M283.566 445.227H277.42V165.414H283.566V445.227Z" fill="#E82C40"/>
<path d="M263.59 445.227H258.98V180.874H263.59V445.227Z" fill="#E82C40"/>
<path d="M245.15 445.227H239.003V205.608H245.15V445.227Z" fill="#E82C40"/>
<path d="M226.71 445.227H220.563V238.073H226.71V445.227Z" fill="#E82C40"/>
<path d="M234.393 445.227H232.856V219.522H234.393V445.227Z" fill="#E82C40"/>
<path d="M252.833 445.227H251.296V187.057H252.833V445.227Z" fill="#E82C40"/>
<path d="M271.273 445.227H269.736V173.144H271.273V445.227Z" fill="#E82C40"/>
<path d="M289.713 445.227H286.64V159.231H289.713V445.227Z" fill="#E82C40"/>
<path d="M306.616 445.227H305.08V143.771H306.616V445.227Z" fill="#E82C40"/>
<path d="M325.056 445.227H323.52V132.95H325.056V445.227Z" fill="#E82C40"/>
<path d="M341.96 445.227H340.423V134.496H341.96V445.227Z" fill="#E82C40"/>
<path d="M360.585 445.744H358.331V152.679H360.585V445.744Z" fill="#E82C40"/>
<path d="M378.84 445.227H375.767V162.322H378.84V445.227Z" fill="#E82C40"/>
<path d="M395.743 445.227H392.67V174.69H395.743V445.227Z" fill="#E82C40"/>
<path d="M412.647 445.227H409.573V187.057H412.647V445.227Z" fill="#E82C40"/>
<path d="M429.55 445.227H428.013V217.976H429.55V445.227Z" fill="#E82C40"/>
<path d="M300.47 445.227H294.323V151.501H300.47V445.227Z" fill="#E82C40"/>
<path d="M318.91 445.227H312.763V139.134H318.91V445.227Z" fill="#E82C40"/>
<path d="M336.023 445.744H330.143V126.974H336.023V445.744Z" fill="#E82C40"/>
<path d="M354.253 445.227H348.106V140.679H354.253V445.227Z" fill="#E82C40"/>
<path d="M371.156 445.227H365.01V154.593H371.156V445.227Z" fill="#E82C40"/>
<path d="M388.06 445.227H383.45V168.506H388.06V445.227Z" fill="#E82C40"/>
<path d="M406.5 445.227H400.353V182.419H406.5V445.227Z" fill="#E82C40"/>
<path d="M423.403 445.227H417.257V207.154H423.403V445.227Z" fill="#E82C40"/>
<path d="M441.843 445.227H435.697V236.527H441.843V445.227Z" fill="#E82C40"/>
<path d="M378.13 432.564C378.566 432.564 379.017 432.564 379.453 432.564L381.578 428.988V320.421H382.776V316.622H379.689C379.041 316.622 378.468 316.95 378.13 317.452V432.564ZM447.55 432.517C449.179 432.515 450.449 432.515 451.326 432.515V318.537C451.324 318.864 451.236 319.196 451.058 319.497L447.55 325.399V432.517ZM388.657 320.421H393.252V316.622H388.657V320.421ZM395.506 320.421H400.321V316.622H395.506V320.421Z" fill="#D32327"/>
<path d="M377.802 432.564C377.91 432.564 378.019 432.564 378.13 432.564V317.452C377.923 317.755 377.802 318.124 377.802 318.52V432.564Z" fill="#BB2429"/>
<path d="M395.506 320.421H393.252V316.622H395.506V320.421Z" fill="#BB2429"/>
<path d="M388.657 320.421H382.777V316.622H388.657V320.421Z" fill="#BB2429"/>
<path d="M406.201 320.421H410.023V316.622H406.201V320.421ZM412.276 320.421H417.866V316.622H412.276V320.421Z" fill="#D32327"/>
<path d="M412.276 320.421H410.023V316.622H412.276V320.421Z" fill="#BB2429"/>
<path d="M423.746 320.421H427.516V316.622H423.746V320.421ZM429.77 320.421H435.41V316.622H429.77V320.421Z" fill="#D32327"/>
<path d="M429.77 320.421H427.516V316.622H429.77V320.421Z" fill="#BB2429"/>
<path d="M406.201 320.421H400.321V316.622H406.201V320.421Z" fill="#BB2429"/>
<path d="M423.746 320.421H417.866V316.622H423.746V320.421Z" fill="#BB2429"/>
<path d="M441.291 320.421H446.108L447.816 317.545C448.171 316.952 448.798 316.624 449.441 316.624C449.769 316.624 450.103 316.71 450.406 316.892C450.56 316.983 450.695 317.094 450.812 317.217C450.468 316.851 449.978 316.622 449.437 316.622H441.291V320.421Z" fill="#D32327"/>
<path d="M441.291 320.421H435.41V316.622H441.291V320.421Z" fill="#BB2429"/>
<path d="M451.326 318.477C451.324 318.473 451.324 318.471 451.324 318.467C451.324 318.471 451.324 318.473 451.326 318.477ZM451.324 318.46C451.312 318.038 451.162 317.652 450.92 317.343C451.17 317.665 451.312 318.056 451.324 318.46ZM450.918 317.341C450.914 317.337 450.91 317.331 450.906 317.327C450.91 317.331 450.914 317.337 450.918 317.341ZM450.9 317.321C450.898 317.316 450.896 317.312 450.892 317.31C450.896 317.312 450.898 317.316 450.9 317.321ZM450.886 317.3C450.882 317.298 450.879 317.296 450.877 317.292C450.879 317.296 450.882 317.298 450.886 317.3ZM450.869 317.283C450.867 317.279 450.865 317.277 450.863 317.275C450.865 317.277 450.867 317.279 450.869 317.283ZM450.855 317.265C450.853 317.263 450.851 317.261 450.847 317.257C450.851 317.261 450.853 317.263 450.855 317.265ZM450.841 317.248C450.836 317.246 450.834 317.242 450.832 317.24C450.834 317.242 450.836 317.246 450.841 317.248ZM450.826 317.234C450.822 317.23 450.818 317.226 450.814 317.222C450.818 317.226 450.822 317.23 450.826 317.234Z" fill="#D32327"/>
<path d="M379.453 432.564C380.57 432.564 381.674 432.562 382.776 432.562V426.97L381.578 428.988L379.453 432.564ZM388.657 424.48L393.252 416.75V409.347L388.657 417.078V424.48ZM395.506 412.958L400.321 404.857V397.453L395.506 405.554V412.958Z" fill="#D32327"/>
<path d="M393.252 416.75L395.506 412.958V405.554L393.252 409.347V416.75Z" fill="#BB2429"/>
<path d="M382.776 432.562C383.139 432.562 383.491 432.562 383.854 432.562L388.657 424.48V417.078L382.776 426.97V432.562Z" fill="#BB2429"/>
<path d="M406.201 394.963L410.023 388.536V381.134L406.201 387.559V394.963ZM412.276 384.746L417.866 375.34V367.936L412.276 377.342V384.746Z" fill="#D32327"/>
<path d="M410.023 388.536L412.276 384.746V377.342L410.023 381.134V388.536Z" fill="#BB2429"/>
<path d="M423.746 365.446L427.516 359.106V351.702L423.746 358.042V365.446ZM429.77 355.313L435.41 345.823V338.417L429.77 347.907V355.313Z" fill="#D32327"/>
<path d="M427.516 359.106L429.77 355.313V347.907L427.516 351.702V359.106Z" fill="#BB2429"/>
<path d="M400.321 404.857L406.201 394.963V387.559L400.321 397.453V404.857Z" fill="#BB2429"/>
<path d="M417.866 375.34L423.746 365.446V358.042L417.866 367.936V375.34Z" fill="#BB2429"/>
<path d="M441.291 335.929L447.55 325.399L451.058 319.497C451.236 319.196 451.324 318.864 451.326 318.537C451.326 318.516 451.326 318.498 451.326 318.477C451.324 318.473 451.324 318.471 451.324 318.467C451.324 318.465 451.324 318.463 451.324 318.46C451.312 318.056 451.17 317.665 450.92 317.343C450.918 317.343 450.918 317.341 450.918 317.341C450.914 317.337 450.91 317.331 450.906 317.327C450.904 317.325 450.902 317.323 450.9 317.321C450.898 317.316 450.896 317.312 450.892 317.31C450.89 317.306 450.888 317.304 450.886 317.3C450.882 317.298 450.879 317.296 450.877 317.292C450.875 317.29 450.871 317.286 450.869 317.284C450.867 317.279 450.865 317.277 450.863 317.275C450.861 317.271 450.857 317.269 450.855 317.265C450.853 317.263 450.851 317.261 450.847 317.257C450.845 317.255 450.843 317.253 450.841 317.248C450.836 317.246 450.834 317.242 450.832 317.24C450.83 317.238 450.828 317.236 450.826 317.234C450.822 317.23 450.818 317.226 450.814 317.222C450.814 317.22 450.812 317.22 450.812 317.218C450.695 317.094 450.56 316.983 450.406 316.892C450.103 316.711 449.769 316.624 449.441 316.624C448.798 316.624 448.171 316.952 447.816 317.545L446.108 320.421L441.291 328.525V335.929Z" fill="#D32327"/>
<path d="M435.41 345.823L441.291 335.929V328.525L435.41 338.417V345.823Z" fill="#BB2429"/>
<path d="M274.044 432.601C275.003 432.601 275.962 432.601 276.935 432.601V320.536L274.044 325.401V432.601Z" fill="#D32327"/>
<path d="M276.935 432.601C277.228 432.601 277.525 432.601 277.82 432.601V318.555C277.814 318.877 277.728 319.2 277.552 319.497L276.935 320.536V432.601Z" fill="#BB2429"/>
<path d="M209.629 320.421H220.926V316.622H209.629V320.421ZM226.807 320.421H232.271V316.622H226.807V320.421ZM234.527 320.421H239.596V316.622H234.527V320.421ZM245.476 320.421H250.67V316.622H245.476V320.421ZM252.924 320.421H258.265V316.622H252.924V320.421ZM264.146 320.421H269.067V316.622H264.146V320.421ZM271.323 320.421H272.601L274.31 317.545C274.665 316.952 275.292 316.624 275.935 316.624C276.263 316.624 276.597 316.71 276.9 316.892C276.912 316.898 276.923 316.906 276.935 316.912C276.644 316.727 276.3 316.622 275.931 316.622H271.323V320.421Z" fill="#D32327"/>
<path d="M277.257 317.168C277.16 317.071 277.052 316.985 276.935 316.912C277.054 316.987 277.16 317.073 277.257 317.168Z" fill="#BB2429"/>
<path d="M264.146 320.421H258.265V316.622H264.146V320.421Z" fill="#BB2429"/>
<path d="M245.476 320.421H239.596V316.622H245.476V320.421Z" fill="#BB2429"/>
<path d="M226.807 320.421H220.927V316.622H226.807V320.421Z" fill="#BB2429"/>
<path d="M234.527 320.421H232.272V316.622H234.527V320.421Z" fill="#BB2429"/>
<path d="M252.924 320.421H250.67V316.622H252.924V320.421Z" fill="#BB2429"/>
<path d="M271.323 320.421H269.068V316.622H271.323V320.421Z" fill="#BB2429"/>
<path d="M277.814 318.378C277.814 318.376 277.814 318.374 277.814 318.374C277.814 318.374 277.814 318.376 277.814 318.378ZM277.814 318.37C277.787 318.024 277.668 317.706 277.482 317.436C277.672 317.714 277.787 318.036 277.814 318.37ZM277.476 317.428C277.474 317.426 277.472 317.422 277.47 317.42C277.472 317.422 277.474 317.426 277.476 317.428ZM277.285 317.197C277.283 317.195 277.281 317.193 277.279 317.191C277.281 317.193 277.283 317.195 277.285 317.197ZM277.271 317.183C277.267 317.178 277.263 317.174 277.259 317.17C277.263 317.174 277.267 317.178 277.271 317.183Z" fill="#BB2429"/>
<path d="M210.368 432.529L220.926 414.766V407.362L209.629 426.368V432.515C209.739 432.519 209.987 432.525 210.368 432.529ZM226.807 404.874L232.271 395.679V388.275L226.807 397.47V404.874ZM234.527 391.884L239.596 383.356V375.95L234.527 384.48V391.884ZM245.476 373.462L250.67 364.725V357.321L245.476 366.059V373.462ZM252.924 360.93L258.265 351.947V344.541L252.924 353.526V360.93ZM264.146 342.053L269.067 333.771V326.367L264.146 334.647V342.053ZM271.323 329.979L274.044 325.401L276.935 320.536V316.912C276.923 316.906 276.912 316.898 276.9 316.892C276.597 316.71 276.263 316.624 275.935 316.624C275.292 316.624 274.665 316.952 274.31 317.545L272.601 320.421L271.323 322.573V329.979Z" fill="#D32327"/>
<path d="M276.935 320.536L277.552 319.497C277.728 319.2 277.814 318.877 277.82 318.555C277.82 318.495 277.818 318.438 277.814 318.378C277.814 318.376 277.814 318.374 277.814 318.374C277.814 318.372 277.814 318.37 277.814 318.37C277.787 318.036 277.672 317.714 277.482 317.436C277.48 317.434 277.478 317.43 277.476 317.428C277.474 317.426 277.472 317.422 277.47 317.42C277.414 317.341 277.353 317.267 277.285 317.197C277.283 317.195 277.281 317.193 277.279 317.191C277.277 317.189 277.273 317.185 277.271 317.182C277.267 317.178 277.263 317.174 277.259 317.17C277.259 317.17 277.259 317.17 277.257 317.168C277.16 317.073 277.054 316.987 276.935 316.912V320.536Z" fill="#BB2429"/>
<path d="M258.265 351.947L264.146 342.053V334.647L258.265 344.541V351.947Z" fill="#BB2429"/>
<path d="M239.596 383.356L245.476 373.463V366.059L239.596 375.95V383.356Z" fill="#BB2429"/>
<path d="M220.926 414.766L226.807 404.874V397.47L220.926 407.362V414.766Z" fill="#BB2429"/>
<path d="M232.271 395.678L234.527 391.884V384.48L232.271 388.275V395.678Z" fill="#BB2429"/>
<path d="M250.67 364.725L252.924 360.93V353.526L250.67 357.321V364.725Z" fill="#BB2429"/>
<path d="M269.067 333.771L271.323 329.979V322.573L269.067 326.367V333.771Z" fill="#BB2429"/>
<path d="M300.934 264.091H304.658V260.688H300.934V264.091ZM306.912 264.091H312.598V260.688H306.912V264.091ZM318.478 264.091H322.885V260.688H318.478V264.091ZM325.141 264.091H330.142V260.688H325.141V264.091ZM336.023 264.091H340.395V260.688H336.023V264.091ZM342.651 264.091H347.687V260.688H342.651V264.091ZM353.567 264.091H358.331V260.688H353.567V264.091ZM360.585 264.091H362.247V260.688H360.585V264.091Z" fill="#D32327"/>
<path d="M306.912 264.091H304.658V260.689H306.912V264.091Z" fill="#BB2429"/>
<path d="M325.141 264.091H322.885V260.689H325.141V264.091Z" fill="#BB2429"/>
<path d="M342.651 264.091H340.395V260.689H342.651V264.091Z" fill="#BB2429"/>
<path d="M360.585 264.091H358.331V260.689H360.585V264.091Z" fill="#BB2429"/>
<path d="M300.934 264.091H300.592V260.689H300.934V264.091Z" fill="#BB2429"/>
<path d="M318.478 264.091H312.597V260.689H318.478V264.091Z" fill="#BB2429"/>
<path d="M336.023 264.091H330.143V260.689H336.023V264.091Z" fill="#BB2429"/>
<path d="M353.567 264.091H347.687V260.689H353.567V264.091Z" fill="#BB2429"/>
<path d="M452.738 283.31V267.985L441.291 246.546V261.607L452.738 283.31ZM220.926 257.912V241.207L220.31 242.254L220.926 257.912ZM435.41 250.46V235.533L429.77 224.967V239.766L435.41 250.46ZM226.807 249.755L232.271 239.4V221.955L226.807 231.231V249.755ZM427.516 235.491V220.745L423.746 213.686V228.345L427.516 235.491ZM234.527 235.127L239.596 225.521V209.524L234.527 218.128V235.127ZM417.866 217.196V202.672L412.276 192.201V206.599L417.866 217.196ZM245.476 214.378L250.67 204.538V190.732L245.476 199.546V214.378ZM410.023 202.326V187.98L409.498 187.001L406.201 184.433V195.085L410.023 202.326ZM252.924 200.265L255.09 196.163L258.265 193.696V182.798L252.924 186.955V200.265ZM400.321 189.149V179.855L395.506 176.105V185.521L400.321 189.149ZM264.146 189.126L269.067 185.302V174.386L264.146 178.22V189.126ZM393.252 183.822V174.351L388.657 170.773V180.36L393.252 183.822ZM271.323 183.55L276.935 179.191V168.26L271.323 172.632V183.55ZM382.776 175.928V166.195L378.13 162.575V172.424L382.776 175.928ZM282.815 174.621L287.114 171.282V160.335L282.815 163.684V174.621ZM375.874 170.723V160.819L371.112 157.113V167.137L375.874 170.723ZM289.37 169.53L295.053 165.113V154.153L289.37 158.581V169.53ZM365.232 162.703V152.533L353.567 143.451V153.912L358.331 157.503V152.679H360.585V159.203L365.232 162.703ZM300.934 160.545L304.658 157.651V146.677L300.934 149.575V160.545ZM306.912 155.899L312.598 151.482V140.493L306.912 144.921V155.899ZM347.687 149.48V138.873L342.651 134.95V145.685L347.687 149.48ZM318.478 146.912L322.885 143.488V132.483L318.478 135.913V146.912ZM340.395 143.985V133.194L336.023 129.791V140.691L340.395 143.985ZM325.141 141.736L330.142 137.851V126.974H332.407L331.183 126.023L325.141 130.727V141.736Z" fill="#D32327"/>
<path d="M276.935 179.191L282.815 174.621V163.684L276.935 168.26V179.191Z" fill="#BB2429"/>
<path d="M258.265 193.696L264.146 189.126V178.22L258.265 182.798V193.696Z" fill="#BB2429"/>
<path d="M239.596 225.521L245.476 214.378V199.546L239.596 209.524V225.521Z" fill="#BB2429"/>
<path d="M221.035 260.688L226.807 249.755V231.231L220.926 241.207V257.912L221.035 260.688Z" fill="#BB2429"/>
<path d="M232.271 239.4L234.527 235.127V218.128L232.271 221.955V239.4Z" fill="#BB2429"/>
<path d="M250.67 204.538L252.924 200.265V186.956L252.869 187.001L250.67 190.732V204.538Z" fill="#BB2429"/>
<path d="M269.067 185.302L271.323 183.55V172.632L269.067 174.386V185.302Z" fill="#BB2429"/>
<path d="M287.114 171.282L289.37 169.53V158.581L287.114 160.335V171.282Z" fill="#BB2429"/>
<path d="M304.658 157.651L306.912 155.899V144.921L304.658 146.677V157.651Z" fill="#BB2429"/>
<path d="M322.885 143.488L325.141 141.736V130.727L322.885 132.483V143.488Z" fill="#BB2429"/>
<path d="M342.651 145.686V134.951L340.395 133.194V143.985L342.651 145.686Z" fill="#BB2429"/>
<path d="M360.585 159.203V152.679H358.331V157.503L360.585 159.203Z" fill="#BB2429"/>
<path d="M378.13 172.424V162.575L375.874 160.819V170.723L378.13 172.424Z" fill="#BB2429"/>
<path d="M395.506 185.521V176.105L393.252 174.351V183.822L395.506 185.521Z" fill="#BB2429"/>
<path d="M412.276 206.599V192.201L410.023 187.98V202.326L412.276 206.599Z" fill="#BB2429"/>
<path d="M429.77 239.766V224.967L427.516 220.745V235.491L429.77 239.766Z" fill="#BB2429"/>
<path d="M295.053 165.113L300.934 160.545V149.575L295.053 154.153V165.113Z" fill="#BB2429"/>
<path d="M312.598 151.482L318.478 146.912V135.913L312.598 140.493V151.482Z" fill="#BB2429"/>
<path d="M336.023 140.691V129.791L332.407 126.974H330.142V137.851L331.183 137.043L336.023 140.691Z" fill="#BB2429"/>
<path d="M353.567 153.912V143.451L347.687 138.873V149.48L353.567 153.912Z" fill="#BB2429"/>
<path d="M371.112 167.137V157.113L365.232 152.533V162.703L371.112 167.137Z" fill="#BB2429"/>
<path d="M388.657 180.36V170.773L382.776 166.195V175.928L388.657 180.36Z" fill="#BB2429"/>
<path d="M406.201 195.085V184.433L400.321 179.855V189.149L404.886 192.591L406.201 195.085Z" fill="#BB2429"/>
<path d="M423.746 228.345V213.686L417.866 202.672V217.196L423.746 228.345Z" fill="#BB2429"/>
<path d="M441.291 261.608V246.546L435.41 235.533V250.46L441.291 261.608Z" fill="#BB2429"/>
<path d="M465.552 287.872C466.029 287.872 466.517 287.75 466.961 287.492C468.316 286.707 468.783 284.965 468.004 283.603L411.953 185.579C411.768 185.257 411.522 184.975 411.231 184.748L332.917 123.77C331.896 122.975 330.47 122.975 329.45 123.77L251.135 184.748C250.842 184.975 250.596 185.259 250.412 185.581L196.661 279.744C195.883 281.109 196.348 282.85 197.706 283.634C199.059 284.411 200.792 283.945 201.573 282.58L255.045 188.907L331.183 129.624L407.324 188.907L463.095 286.445C463.617 287.36 464.572 287.872 465.552 287.872Z" fill="white"/>
<path d="M304.14 255.121H359.186V181.083H304.14V255.121Z" fill="#4D211E"/>
<path d="M279.705 431.94H382.99V314.723H279.705V431.94Z" fill="#4D211E"/>
<path d="M382.99 314.723L279.705 431.94H382.99V314.723Z" fill="#37191A"/>
<path d="M359.186 181.083L304.14 255.121H359.186V181.083Z" fill="#37191A"/>
<path d="M277.82 430.171H211.846V316.622H277.82V430.171ZM209.957 433.968H279.707C280.75 433.968 281.594 433.119 281.594 432.069V314.723C281.594 313.674 280.75 312.825 279.707 312.825H209.957C208.914 312.825 208.07 313.674 208.07 314.723V432.069C208.07 433.119 208.914 433.968 209.957 433.968Z" fill="white"/>
<path d="M450.851 430.171H384.876V316.622H450.851V430.171ZM382.989 433.968H452.738C453.781 433.968 454.625 433.119 454.625 432.069V314.723C454.625 313.674 453.781 312.825 452.738 312.825H382.989C381.947 312.825 381.102 313.674 381.102 314.723V432.069C381.102 433.119 381.947 433.968 382.989 433.968Z" fill="white"/>
<path d="M382.988 433.968C383.631 433.968 384.256 433.638 384.61 433.044L454.359 315.698C454.893 314.797 454.602 313.631 453.707 313.093C452.812 312.557 451.652 312.85 451.117 313.746L381.369 431.095C380.834 431.995 381.125 433.162 382.02 433.7C382.324 433.881 382.658 433.968 382.988 433.968Z" fill="white"/>
<path d="M209.957 433.968C210.598 433.968 211.225 433.638 211.579 433.044L281.328 315.698C281.862 314.797 281.571 313.631 280.676 313.093C279.781 312.557 278.623 312.848 278.086 313.746L208.336 431.094C207.803 431.995 208.094 433.162 208.988 433.7C209.293 433.881 209.625 433.968 209.957 433.968Z" fill="white"/>
<path d="M300.591 181.083H362.247V175.514H300.591V181.083Z" fill="white"/>
<path d="M300.591 260.688H362.247V255.12H300.591V260.688Z" fill="white"/>
<path d="M279.705 316.622H382.99V308.226H279.705V316.622Z" fill="white"/>
<path d="M624.579 461.43C624.579 461.43 581.116 463.6 529.592 441.03C478.069 418.459 450.046 411.01 413.551 414.969C377.056 418.929 328.294 421.802 275.394 421.802C222.494 421.802 198.067 438.329 163.58 436.802C129.095 435.275 92.842 434.021 61.4695 443.977C30.0969 453.931 10.3087 463.452 1.70532 470.376C-6.89795 477.301 18.0432 480.762 54.1815 486.82C90.3178 492.88 154.018 496.341 206.91 504.996C259.802 513.651 342.165 509.325 380.564 500.667C418.962 492.014 500.213 482.493 548.201 485.956C596.187 489.417 665.512 465.973 624.579 461.43Z" fill="#6FC971"/>
<path d="M590.225 468.813C589.391 470.163 588.556 471.511 587.721 472.861C587.482 473.249 586.935 473.436 586.534 473.175C586.148 472.925 585.967 472.396 586.223 471.981C587.058 470.631 587.893 469.283 588.727 467.933C588.966 467.545 589.512 467.36 589.914 467.62C590.3 467.871 590.482 468.399 590.225 468.813Z" fill="#B5E2B7"/>
<path d="M585.381 467.145C585.112 467.914 584.842 468.683 584.572 469.45C584.439 469.835 584.303 470.219 584.168 470.604C584.037 470.979 583.927 471.377 583.738 471.728C583.536 472.107 583.207 472.408 582.788 472.517C582.303 472.643 581.794 472.426 581.544 471.991C581.337 471.633 581.318 471.155 581.516 470.788C581.738 470.38 582.243 470.147 582.691 470.305C583.119 470.456 583.448 470.909 583.297 471.377C583.16 471.804 582.688 472.15 582.23 471.987L582.194 471.975C582.472 471.864 582.749 471.752 583.027 471.639L583.113 471.33L583.096 471.231L583.071 471.179L582.995 471.054C582.852 470.87 582.552 470.753 582.331 470.839L582.236 470.881L582.208 470.903L582.27 470.79L582.256 470.819L582.387 470.45C582.475 470.201 582.563 469.949 582.652 469.698C583.004 468.692 583.356 467.686 583.708 466.682C583.859 466.253 584.307 465.921 584.776 466.072C585.197 466.21 585.542 466.686 585.381 467.146" fill="#B5E2B7"/>
<path d="M581.324 467.117C581.496 468.294 581.668 469.473 581.84 470.652C581.875 470.893 581.88 471.105 581.752 471.324C581.647 471.505 581.442 471.678 581.234 471.726C580.823 471.818 580.238 471.598 580.167 471.115C579.995 469.936 579.823 468.757 579.651 467.58C579.616 467.339 579.611 467.127 579.738 466.908C579.843 466.727 580.051 466.554 580.256 466.507C580.668 466.412 581.253 466.632 581.324 467.117" fill="#B5E2B7"/>
<path d="M496.171 439.461C495.518 440.984 494.866 442.508 494.213 444.031C494.033 444.453 493.388 444.579 493.026 444.344C492.592 444.064 492.524 443.6 492.716 443.151C493.368 441.625 494.021 440.104 494.673 438.579C494.853 438.158 495.5 438.033 495.859 438.268C496.294 438.548 496.364 439.01 496.171 439.461Z" fill="#B5E2B7"/>
<path d="M491.714 438.785C491.936 440.306 491.805 441.858 491.219 443.289C491.129 443.507 491.033 443.684 490.821 443.808C490.635 443.919 490.36 443.965 490.151 443.897C489.749 443.767 489.362 443.276 489.546 442.823C489.674 442.512 489.783 442.192 489.87 441.866L489.983 441.374L490.023 441.161L490.044 441.017L490.037 441.071C490.072 440.747 490.096 440.424 490.095 440.098L490.075 439.593L490.055 439.377L490.039 439.232L490.042 439.251C490.007 439.008 490.002 438.797 490.128 438.577C490.233 438.398 490.44 438.224 490.647 438.177C491.059 438.082 491.643 438.303 491.714 438.785" fill="#B5E2B7"/>
<path d="M488.714 439.29C488.882 440.131 489.048 440.974 489.216 441.817C489.262 442.048 489.251 442.279 489.129 442.489C489.024 442.67 488.816 442.841 488.611 442.889C488.179 442.988 487.638 442.759 487.543 442.281C487.376 441.438 487.209 440.595 487.041 439.754C486.995 439.521 487.007 439.29 487.128 439.082C487.234 438.9 487.441 438.727 487.647 438.68C488.078 438.581 488.619 438.81 488.714 439.29Z" fill="#B5E2B7"/>
<path d="M538.145 461.613C537.075 463.396 535.614 464.911 533.884 466.053C533.505 466.306 532.909 466.144 532.698 465.742C532.469 465.305 532.603 464.816 533.009 464.548C533.199 464.42 533.387 464.293 533.571 464.157L533.735 464.033L533.75 464.022L534.014 463.804C534.374 463.503 534.716 463.183 535.04 462.843L535.502 462.336L535.721 462.072L535.828 461.938L535.84 461.926C536.144 461.559 536.403 461.14 536.648 460.732C536.881 460.341 537.436 460.161 537.835 460.419C538.224 460.673 538.396 461.196 538.145 461.613" fill="#B5E2B7"/>
<path d="M534.356 459.946C533.84 461.456 533.325 462.967 532.81 464.478C532.663 464.909 532.208 465.239 531.742 465.088C531.318 464.95 530.98 464.478 531.136 464.014C531.653 462.504 532.167 460.993 532.684 459.482C532.831 459.051 533.286 458.719 533.75 458.872C534.175 459.01 534.514 459.482 534.356 459.946Z" fill="#B5E2B7"/>
<path d="M530.25 459.167C530.25 460.684 530.25 462.199 530.25 463.716C530.25 464.171 529.851 464.608 529.383 464.588C528.912 464.567 528.515 464.204 528.515 463.716C528.515 462.199 528.515 460.684 528.515 459.167C528.515 458.709 528.913 458.272 529.383 458.293C529.852 458.315 530.25 458.676 530.25 459.167Z" fill="#B5E2B7"/>
<path d="M421.754 449.563C421.759 451.344 421.193 453.137 420.13 454.566C419.857 454.931 419.368 455.153 418.941 454.879C418.585 454.646 418.339 454.075 418.63 453.686C418.861 453.374 419.072 453.047 419.255 452.705C419.351 452.523 419.441 452.336 419.523 452.144L419.579 451.993L419.669 451.736C419.792 451.367 419.884 450.99 419.947 450.606C419.955 450.567 419.99 450.291 419.968 450.493L419.999 450.184C420.012 449.978 420.019 449.771 420.019 449.563C420.019 449.108 420.419 448.669 420.886 448.691C421.357 448.712 421.754 449.075 421.754 449.563" fill="#B5E2B7"/>
<path d="M418.714 449.058C418.894 450.421 418.64 451.785 418.089 453.03C417.903 453.449 417.265 453.579 416.901 453.344C416.47 453.063 416.39 452.597 416.591 452.148L416.64 452.032L416.627 452.065L416.692 451.886L416.827 451.466C416.903 451.189 416.959 450.911 417.004 450.629L416.993 450.703L417.007 450.577L417.023 450.388L417.037 449.944C417.039 449.648 417.019 449.353 416.98 449.058C416.951 448.854 417.094 448.58 417.234 448.442C417.383 448.291 417.629 448.178 417.846 448.186C418.07 448.197 418.303 448.271 418.459 448.442C418.627 448.625 418.682 448.817 418.713 449.058" fill="#B5E2B7"/>
<path d="M414.598 448.345C414.915 449.361 415.231 450.377 415.548 451.393C415.684 451.83 415.389 452.364 414.942 452.467C414.471 452.574 414.02 452.325 413.874 451.857C413.559 450.841 413.241 449.825 412.926 448.809C412.789 448.372 413.086 447.838 413.53 447.735C414.001 447.628 414.452 447.879 414.598 448.345Z" fill="#B5E2B7"/>
<path d="M362.365 482.364C361.699 483.712 361.029 485.06 360.364 486.408C360.161 486.818 359.552 486.966 359.175 486.723C358.759 486.451 358.649 485.967 358.866 485.528C359.532 484.18 360.202 482.832 360.868 481.481C361.07 481.073 361.679 480.925 362.054 481.168C362.472 481.438 362.583 481.925 362.365 482.364Z" fill="#B5E2B7"/>
<path d="M359.433 482.147C359.046 483.479 358.659 484.812 358.272 486.144C358.143 486.581 357.655 486.9 357.204 486.752C356.762 486.61 356.46 486.15 356.598 485.68C356.985 484.347 357.372 483.015 357.759 481.683C357.886 481.246 358.376 480.927 358.827 481.073C359.269 481.217 359.569 481.677 359.433 482.147Z" fill="#B5E2B7"/>
<path d="M354.414 482.174C354.928 483.856 355.44 485.538 355.954 487.22C356.088 487.655 355.797 488.189 355.348 488.292C354.879 488.399 354.424 488.15 354.28 487.684C353.768 486.002 353.254 484.32 352.742 482.638C352.608 482.201 352.899 481.667 353.348 481.564C353.817 481.457 354.272 481.708 354.414 482.174Z" fill="#B5E2B7"/>
<path d="M358.727 443.175C358.069 444.196 357.413 445.214 356.756 446.234C356.51 446.616 355.975 446.809 355.569 446.548C355.188 446.3 354.994 445.762 355.258 445.352C355.916 444.334 356.571 443.314 357.229 442.295C357.475 441.912 358.009 441.718 358.415 441.982C358.796 442.227 358.991 442.767 358.727 443.175Z" fill="#B5E2B7"/>
<path d="M354.239 441.473C354.483 443.163 354.354 444.878 353.766 446.488C353.61 446.915 353.17 447.251 352.699 447.096C352.283 446.96 351.926 446.482 352.094 446.024C352.225 445.661 352.338 445.292 352.424 444.917L352.524 444.433L352.576 444.107L352.583 444.01C352.62 443.654 352.637 443.297 352.632 442.938C352.631 442.747 352.622 442.555 352.61 442.361L352.587 442.116L352.569 441.951L352.567 441.937C352.504 441.488 352.678 440.979 353.174 440.865C353.584 440.771 354.172 440.991 354.239 441.473" fill="#B5E2B7"/>
<path d="M351.148 440.762C351.893 442.32 352.297 444.012 352.299 445.746C352.299 446.203 351.9 446.64 351.43 446.618C350.961 446.597 350.564 446.234 350.564 445.746C350.564 445.36 350.545 444.977 350.504 444.593L350.493 444.497L350.44 444.173L350.336 443.647C350.254 443.285 350.151 442.928 350.032 442.575L349.83 442.035L349.789 441.941L349.649 441.642C349.452 441.232 349.524 440.681 349.961 440.448C350.348 440.242 350.938 440.323 351.147 440.762" fill="#B5E2B7"/>
<path d="M481.659 474.96C480.543 474.96 480.54 473.216 481.659 473.216C482.774 473.216 482.776 474.96 481.659 474.96Z" fill="#B5E2B7"/>
<path d="M480.43 470.538C480.26 471.886 480.091 473.232 479.922 474.58C479.892 474.822 479.844 475.019 479.668 475.199C479.517 475.349 479.271 475.463 479.055 475.454C478.634 475.434 478.126 475.067 478.187 474.58C478.357 473.232 478.526 471.886 478.694 470.538C478.725 470.299 478.77 470.099 478.948 469.922C479.099 469.769 479.346 469.656 479.562 469.666C479.983 469.685 480.49 470.054 480.43 470.538Z" fill="#B5E2B7"/>
<path d="M474.858 469.611C475.546 471.014 475.942 472.521 476.021 474.086C476.046 474.543 475.606 474.98 475.155 474.96C474.663 474.937 474.311 474.574 474.286 474.086L474.249 473.572L474.22 473.315L474.227 473.364L474.204 473.22C474.153 472.892 474.085 472.567 474.003 472.247C473.919 471.925 473.821 471.608 473.708 471.297L473.628 471.091L473.575 470.955L473.576 470.959L473.359 470.491C473.159 470.083 473.236 469.529 473.671 469.298C474.062 469.09 474.644 469.174 474.857 469.611" fill="#B5E2B7"/>
<path d="M400.534 434.609C400.018 436.12 399.501 437.631 398.985 439.141C398.84 439.572 398.383 439.902 397.918 439.752C397.494 439.614 397.156 439.141 397.311 438.678C397.828 437.167 398.344 435.656 398.86 434.145C399.008 433.714 399.463 433.382 399.928 433.535C400.352 433.673 400.69 434.147 400.534 434.609Z" fill="#B5E2B7"/>
<path d="M402.55 436.874C401.88 438.222 401.212 439.57 400.542 440.918C400.339 441.326 399.731 441.475 399.356 441.232C398.94 440.962 398.827 440.475 399.045 440.036C399.715 438.69 400.383 437.342 401.052 435.994C401.255 435.584 401.864 435.435 402.239 435.681C402.655 435.951 402.767 436.437 402.55 436.874Z" fill="#B5E2B7"/>
<path d="M397.004 461.628C396.668 462.302 396.332 462.976 395.998 463.65C395.904 463.837 395.676 463.996 395.479 464.05C395.273 464.109 394.996 464.083 394.812 463.963C394.625 463.844 394.463 463.664 394.412 463.442C394.359 463.205 394.392 462.988 394.5 462.77C394.834 462.096 395.17 461.422 395.506 460.748C395.598 460.558 395.826 460.401 396.022 460.346C396.231 460.29 396.508 460.315 396.692 460.434C396.877 460.556 397.041 460.733 397.09 460.956C397.143 461.193 397.11 461.409 397.004 461.628" fill="#B5E2B7"/>
<path d="M393.605 459.167C393.605 460.177 393.605 461.189 393.605 462.199C393.605 462.656 393.205 463.091 392.736 463.071C392.267 463.05 391.869 462.687 391.869 462.199C391.869 461.189 391.869 460.177 391.869 459.167C391.869 458.709 392.269 458.272 392.736 458.293C393.207 458.315 393.605 458.676 393.605 459.167Z" fill="#B5E2B7"/>
<path d="M390.056 459.441C390.392 460.451 390.728 461.461 391.062 462.473C391.205 462.906 390.896 463.444 390.456 463.545C389.976 463.654 389.542 463.4 389.388 462.936C389.054 461.926 388.72 460.914 388.384 459.904C388.241 459.469 388.55 458.931 388.991 458.83C389.468 458.719 389.902 458.975 390.056 459.441Z" fill="#B5E2B7"/>
<path d="M353.328 419.191C352.828 420.203 352.33 421.215 351.832 422.227C351.629 422.637 351.019 422.783 350.646 422.54C350.228 422.27 350.117 421.786 350.332 421.347C350.832 420.335 351.33 419.323 351.83 418.309C352.031 417.9 352.641 417.752 353.016 417.997C353.434 418.267 353.545 418.752 353.328 419.191Z" fill="#B5E2B7"/>
<path d="M349.396 418.733C349.396 419.409 349.396 420.081 349.396 420.755C349.396 420.98 349.3 421.215 349.142 421.374C348.99 421.524 348.744 421.638 348.529 421.629C348.058 421.607 347.661 421.246 347.661 420.755C347.661 420.081 347.661 419.409 347.661 418.733C347.661 418.511 347.757 418.276 347.917 418.117C348.066 417.967 348.312 417.851 348.529 417.861C348.998 417.882 349.396 418.245 349.396 418.733Z" fill="#B5E2B7"/>
<path d="M345.355 420.017C345.523 421.027 345.691 422.037 345.859 423.05C345.901 423.287 345.898 423.505 345.773 423.721C345.667 423.903 345.46 424.074 345.255 424.121C344.835 424.218 344.267 423.994 344.188 423.513C344.02 422.503 343.852 421.491 343.684 420.481C343.643 420.242 343.645 420.024 343.77 419.807C343.874 419.628 344.081 419.455 344.288 419.407C344.708 419.313 345.276 419.535 345.355 420.017Z" fill="#B5E2B7"/>
<path d="M330.503 417.332C330.384 418.943 329.843 420.516 328.87 421.811C328.727 422 328.585 422.147 328.35 422.213C328.143 422.27 327.866 422.243 327.682 422.124C327.325 421.893 327.079 421.32 327.37 420.931C327.59 420.64 327.79 420.335 327.964 420.015L328.182 419.589L328.294 419.339C328.212 419.552 328.321 419.269 328.333 419.23C328.454 418.908 328.552 418.581 328.628 418.249L328.733 417.711L328.728 417.74L328.745 417.604L328.769 417.332C328.802 416.878 329.144 416.437 329.636 416.458C330.076 416.478 330.539 416.843 330.503 417.332" fill="#B5E2B7"/>
<path d="M327.483 416.825C327.483 418.173 327.483 419.521 327.483 420.869C327.483 421.324 327.086 421.761 326.616 421.741C326.147 421.72 325.75 421.357 325.75 420.869C325.75 419.521 325.75 418.173 325.75 416.825C325.75 416.369 326.147 415.932 326.616 415.953C327.086 415.973 327.483 416.336 327.483 416.825Z" fill="#B5E2B7"/>
<path d="M323.467 417.597C323.645 418.605 323.826 419.615 324.004 420.623C324.047 420.86 324.041 421.083 323.918 421.297C323.811 421.479 323.604 421.65 323.399 421.697C322.975 421.794 322.418 421.567 322.332 421.089C322.152 420.079 321.973 419.071 321.793 418.061C321.752 417.826 321.756 417.604 321.881 417.389C321.986 417.208 322.193 417.037 322.4 416.989C322.822 416.89 323.381 417.117 323.467 417.597" fill="#B5E2B7"/>
<path d="M326.758 479.175L326.733 479.193L326.709 479.214L326.547 479.354L326.241 479.651L325.942 479.991L325.924 480.014L325.919 480.022L325.784 480.215C325.62 480.461 325.477 480.716 325.356 480.984L325.317 481.071L325.339 481.015L325.264 481.215L325.124 481.673C325.01 482.114 324.499 482.425 324.057 482.281C323.606 482.134 323.33 481.681 323.452 481.209C323.829 479.77 324.702 478.548 325.882 477.668C326.053 477.542 326.358 477.526 326.55 477.579C326.751 477.637 326.97 477.791 327.069 477.981C327.175 478.183 327.229 478.428 327.157 478.653C327.083 478.882 326.95 479.032 326.757 479.175" fill="#B5E2B7"/>
<path d="M322.156 477.4C322.156 478.243 322.156 479.086 322.156 479.927C322.156 480.385 321.758 480.822 321.289 480.799C320.82 480.779 320.423 480.418 320.423 479.927C320.423 479.086 320.423 478.243 320.423 477.4C320.423 476.945 320.82 476.508 321.289 476.528C321.758 476.549 322.156 476.912 322.156 477.4Z" fill="#B5E2B7"/>
<path d="M318.054 477.184C318.357 478.206 318.66 479.226 318.962 480.247C319.093 480.684 318.806 481.216 318.357 481.319C317.89 481.426 317.429 481.178 317.29 480.711C316.987 479.69 316.685 478.67 316.382 477.648C316.253 477.211 316.538 476.679 316.989 476.574C317.454 476.469 317.915 476.716 318.054 477.184Z" fill="#B5E2B7"/>
<path d="M453.961 440.094C453.473 441.279 452.986 442.464 452.496 443.65C452.408 443.868 452.312 444.045 452.099 444.171C451.912 444.28 451.64 444.326 451.431 444.26C451.029 444.128 450.64 443.637 450.824 443.186C451.312 442 451.799 440.815 452.287 439.63C452.377 439.41 452.473 439.232 452.687 439.109C452.873 438.999 453.145 438.952 453.354 439.02C453.756 439.152 454.147 439.642 453.961 440.094Z" fill="#B5E2B7"/>
<path d="M449.39 440.115C449.556 440.958 449.724 441.799 449.892 442.642C449.937 442.872 449.927 443.105 449.806 443.314C449.699 443.495 449.492 443.668 449.287 443.715C448.855 443.812 448.314 443.584 448.22 443.105C448.052 442.262 447.884 441.421 447.716 440.578C447.671 440.345 447.683 440.117 447.804 439.906C447.909 439.725 448.115 439.552 448.322 439.504C448.753 439.405 449.294 439.636 449.39 440.115" fill="#B5E2B7"/>
<path d="M427.682 429.303C427.024 430.324 426.367 431.344 425.709 432.362C425.463 432.743 424.93 432.939 424.523 432.675C424.144 432.428 423.947 431.89 424.211 431.482C424.869 430.462 425.527 429.443 426.182 428.423C426.43 428.042 426.963 427.846 427.371 428.11C427.75 428.357 427.946 428.895 427.682 429.303Z" fill="#B5E2B7"/>
<path d="M423.746 428.842C423.746 429.516 423.746 430.19 423.746 430.864C423.746 431.088 423.65 431.323 423.492 431.482C423.342 431.632 423.094 431.746 422.879 431.738C422.41 431.715 422.013 431.354 422.013 430.864C422.013 430.19 422.013 429.516 422.013 428.842C422.013 428.619 422.109 428.384 422.267 428.225C422.416 428.075 422.662 427.959 422.879 427.97C423.348 427.99 423.746 428.353 423.746 428.842Z" fill="#B5E2B7"/>
<path d="M311.309 434.061C311.145 434.846 310.983 435.633 310.819 436.419C310.776 436.625 310.598 436.837 310.42 436.94C310.233 437.05 309.961 437.097 309.752 437.027C309.283 436.874 309.047 436.433 309.145 435.955C309.309 435.17 309.473 434.382 309.635 433.597C309.678 433.391 309.858 433.178 310.035 433.075C310.221 432.966 310.496 432.919 310.703 432.987C311.174 433.139 311.409 433.583 311.309 434.061" fill="#B5E2B7"/>
<path d="M308.936 432.745C308.744 433.525 308.551 434.306 308.359 435.085C308.25 435.526 307.73 435.835 307.291 435.693C306.836 435.545 306.57 435.095 306.687 434.619C306.879 433.842 307.07 433.063 307.265 432.282C307.373 431.839 307.892 431.529 308.33 431.674C308.787 431.822 309.053 432.271 308.936 432.745Z" fill="#B5E2B7"/>
<path d="M304.312 430.948C304.247 431.676 304.226 432.407 304.257 433.137C304.273 433.494 304.3 433.85 304.341 434.207L304.372 434.463L304.388 434.572C304.419 434.77 304.454 434.966 304.491 435.163C304.572 435.611 304.366 436.126 303.884 436.237C303.456 436.334 302.907 436.107 302.817 435.627C302.528 434.083 302.433 432.515 302.577 430.948C302.62 430.497 302.946 430.054 303.444 430.076C303.878 430.095 304.357 430.462 304.312 430.948" fill="#B5E2B7"/>
<path d="M311.33 448.71C311.059 449.4 310.787 450.093 310.516 450.785C310.43 451.004 310.326 451.185 310.117 451.307C309.93 451.416 309.658 451.463 309.449 451.395C309.238 451.325 309.035 451.195 308.93 450.993C308.828 450.8 308.758 450.536 308.842 450.322C309.115 449.629 309.385 448.936 309.658 448.246C309.744 448.025 309.846 447.846 310.055 447.724C310.242 447.615 310.516 447.568 310.725 447.636C310.934 447.704 311.137 447.836 311.244 448.038C311.344 448.231 311.414 448.495 311.33 448.71" fill="#B5E2B7"/>
<path d="M306.662 447.929C306.752 448.712 306.843 449.495 306.931 450.281C306.955 450.487 306.816 450.757 306.677 450.897C306.527 451.049 306.279 451.163 306.064 451.153C305.839 451.142 305.607 451.068 305.449 450.897L305.316 450.722L305.195 450.281C305.107 449.495 305.017 448.712 304.929 447.929C304.904 447.721 305.041 447.453 305.183 447.312C305.332 447.16 305.578 447.046 305.795 447.057C306.019 447.068 306.252 447.141 306.408 447.312L306.545 447.49L306.662 447.929" fill="#B5E2B7"/>
<path d="M301.431 497.301C301.144 498.513 300.86 499.725 300.575 500.94C300.468 501.385 299.942 501.692 299.507 501.55C299.046 501.399 298.788 500.952 298.901 500.476C299.186 499.264 299.473 498.05 299.759 496.836C299.864 496.39 300.391 496.085 300.827 496.225C301.286 496.376 301.544 496.823 301.431 497.301Z" fill="#B5E2B7"/>
<path d="M298.805 497.058C298.714 497.841 298.626 498.625 298.536 499.408C298.51 499.647 298.458 499.849 298.282 500.026C298.133 500.177 297.885 500.292 297.67 500.282C297.444 500.271 297.211 500.197 297.055 500.026C296.909 499.868 296.776 499.635 296.801 499.408C296.891 498.625 296.981 497.841 297.069 497.058C297.096 496.819 297.149 496.617 297.323 496.442C297.473 496.289 297.721 496.176 297.936 496.186C298.161 496.197 298.395 496.271 298.551 496.442C298.696 496.601 298.829 496.833 298.805 497.058Z" fill="#B5E2B7"/>
<path d="M294.662 495.78C294.922 496.739 295.182 497.697 295.442 498.656C295.561 499.097 295.293 499.624 294.836 499.728C294.379 499.833 293.898 499.591 293.769 499.119C293.508 498.161 293.25 497.203 292.99 496.244C292.869 495.805 293.137 495.277 293.594 495.17C294.053 495.067 294.535 495.31 294.662 495.78Z" fill="#B5E2B7"/>
<path d="M428.559 480.358C428.202 481.488 427.846 482.617 427.487 483.745C427.35 484.18 426.879 484.503 426.42 484.355C425.987 484.215 425.668 483.747 425.815 483.281C426.172 482.153 426.53 481.024 426.887 479.894C427.024 479.459 427.495 479.136 427.954 479.284C428.387 479.426 428.708 479.892 428.559 480.358Z" fill="#B5E2B7"/>
<path d="M424.697 479.068C424.596 480.199 424.498 481.333 424.402 482.463C424.379 482.7 424.318 482.908 424.148 483.081C423.996 483.231 423.75 483.345 423.533 483.337C423.097 483.316 422.623 482.951 422.666 482.463C422.765 481.333 422.863 480.199 422.961 479.068C422.982 478.833 423.043 478.625 423.215 478.452C423.365 478.301 423.613 478.188 423.828 478.196C424.264 478.216 424.738 478.583 424.697 479.068Z" fill="#B5E2B7"/>
<path d="M418.87 478.317C419.238 479.443 419.605 480.568 419.972 481.694C420.113 482.129 419.806 482.667 419.365 482.768C418.888 482.877 418.45 482.623 418.3 482.157C417.931 481.034 417.564 479.907 417.198 478.781C417.056 478.348 417.362 477.81 417.802 477.709C418.28 477.6 418.718 477.854 418.87 478.317Z" fill="#B5E2B7"/>
<path d="M245.976 435.825C245.544 436.783 245.112 437.742 244.677 438.698C244.593 438.886 244.349 439.047 244.159 439.1C243.952 439.158 243.675 439.131 243.491 439.012C243.306 438.892 243.143 438.713 243.093 438.49C243.038 438.249 243.08 438.043 243.179 437.818C243.614 436.86 244.046 435.901 244.478 434.943C244.564 434.755 244.808 434.594 244.997 434.543C245.206 434.485 245.48 434.51 245.665 434.63C245.851 434.751 246.013 434.928 246.064 435.151C246.118 435.394 246.078 435.6 245.976 435.825" fill="#B5E2B7"/>
<path d="M243.763 434.842C243.499 436.062 243.237 437.28 242.975 438.498C242.878 438.946 242.335 439.249 241.907 439.109C241.44 438.956 241.198 438.515 241.301 438.035C241.563 436.816 241.827 435.598 242.089 434.378C242.186 433.933 242.729 433.63 243.157 433.768C243.624 433.923 243.866 434.364 243.763 434.842Z" fill="#B5E2B7"/>
<path d="M239.881 435.39L239.917 435.833L239.936 436.023L239.93 435.98L239.948 436.107C239.989 436.38 240.04 436.65 240.1 436.92C240.227 437.478 240.399 438.026 240.61 438.558C240.69 438.754 240.624 439.055 240.522 439.23C240.417 439.412 240.213 439.585 240.006 439.632C239.782 439.684 239.534 439.671 239.336 439.544C239.135 439.414 239.026 439.245 238.938 439.022C238.477 437.864 238.223 436.635 238.145 435.39C238.117 434.933 238.565 434.496 239.014 434.516C239.508 434.539 239.85 434.9 239.881 435.39" fill="#B5E2B7"/>
<path d="M257.505 449.734C257.173 450.783 256.843 451.835 256.514 452.884C256.376 453.319 255.903 453.642 255.446 453.494C255.012 453.352 254.692 452.886 254.84 452.42C255.172 451.369 255.501 450.32 255.833 449.268C255.971 448.834 256.442 448.51 256.901 448.66C257.333 448.801 257.653 449.266 257.505 449.734Z" fill="#B5E2B7"/>
<path d="M254.948 448.7C254.684 449.656 254.42 450.612 254.155 451.569C254.034 452.01 253.535 452.323 253.088 452.179C252.641 452.033 252.352 451.577 252.481 451.105C252.746 450.149 253.01 449.192 253.274 448.234C253.395 447.795 253.895 447.479 254.342 447.626C254.788 447.77 255.077 448.228 254.948 448.7Z" fill="#B5E2B7"/>
<path d="M249.193 447.7C249.375 448.745 249.556 449.788 249.738 450.833C249.779 451.068 249.775 451.291 249.65 451.505C249.543 451.686 249.338 451.857 249.131 451.905C248.709 452.002 248.148 451.777 248.064 451.297C247.884 450.252 247.701 449.209 247.521 448.164C247.48 447.929 247.484 447.706 247.607 447.492C247.714 447.31 247.921 447.139 248.125 447.092C248.548 446.995 249.109 447.22 249.193 447.7" fill="#B5E2B7"/>
<path d="M217.14 426.712C216.952 428.51 216.499 430.221 215.786 431.878C215.603 432.298 214.96 432.424 214.599 432.191C214.165 431.909 214.093 431.445 214.288 430.996L214.302 430.963L214.367 430.8L214.464 430.557C214.538 430.367 214.607 430.173 214.673 429.982C214.794 429.621 214.904 429.258 214.999 428.891C215.095 428.524 215.179 428.153 215.249 427.78C215.285 427.578 215.318 427.378 215.349 427.176C215.392 426.892 215.33 427.345 215.365 427.061L215.404 426.712C215.453 426.259 215.769 425.816 216.273 425.84C216.701 425.859 217.191 426.226 217.14 426.712" fill="#B5E2B7"/>
<path d="M214.022 425.902C213.862 426.949 213.702 427.999 213.542 429.044C213.51 429.248 213.309 429.468 213.143 429.565C212.956 429.676 212.682 429.722 212.475 429.654C212.264 429.586 212.061 429.456 211.956 429.252C211.84 429.033 211.832 428.825 211.868 428.58C212.028 427.533 212.188 426.486 212.35 425.438C212.381 425.236 212.581 425.016 212.747 424.917C212.934 424.808 213.208 424.762 213.415 424.828C213.626 424.898 213.829 425.028 213.934 425.23C214.05 425.451 214.059 425.657 214.022 425.902Z" fill="#B5E2B7"/>
<path d="M210.172 425.168C210.395 426.7 210.793 428.2 211.356 429.641C211.522 430.068 211.174 430.618 210.752 430.715C210.252 430.831 209.862 430.563 209.684 430.105C209.121 428.664 208.723 427.164 208.5 425.632C208.432 425.183 208.608 424.672 209.104 424.558C209.516 424.463 210.1 424.686 210.172 425.168Z" fill="#B5E2B7"/>
<path d="M216.118 458.567C215.683 459.523 215.249 460.48 214.812 461.438C214.728 461.626 214.483 461.786 214.294 461.838C214.087 461.896 213.811 461.871 213.626 461.751C213.442 461.63 213.278 461.452 213.229 461.23C213.173 460.987 213.212 460.78 213.315 460.556C213.751 459.599 214.183 458.643 214.62 457.685C214.704 457.497 214.95 457.336 215.138 457.285C215.345 457.227 215.622 457.252 215.806 457.371C215.991 457.493 216.155 457.672 216.206 457.895C216.259 458.136 216.22 458.342 216.118 458.567" fill="#B5E2B7"/>
<path d="M212.798 457.829C212.606 459.047 212.415 460.263 212.225 461.479C212.192 461.681 211.993 461.902 211.827 462.001C211.641 462.11 211.366 462.155 211.157 462.089C210.67 461.93 210.475 461.5 210.553 461.015C210.743 459.799 210.934 458.581 211.125 457.365C211.157 457.163 211.356 456.942 211.524 456.843C211.711 456.734 211.985 456.689 212.192 456.757C212.682 456.913 212.874 457.344 212.798 457.829" fill="#B5E2B7"/>
<path d="M208.932 457.864L208.959 458.367L208.977 458.556L208.973 458.511L208.991 458.637C209.04 458.938 209.11 459.235 209.198 459.527L209.35 459.977L209.419 460.152L209.405 460.119L209.459 460.232C209.59 460.519 209.744 460.795 209.914 461.061C210.157 461.446 210.004 462.04 209.602 462.254C209.172 462.483 208.676 462.353 208.416 461.941C207.643 460.729 207.228 459.303 207.197 457.864C207.189 457.406 207.603 456.969 208.066 456.992C208.543 457.012 208.922 457.375 208.932 457.864Z" fill="#B5E2B7"/>
<path d="M244.089 486.045C243.624 487.83 243.018 489.568 242.302 491.268C242.126 491.689 241.475 491.814 241.116 491.582C240.68 491.299 240.614 490.837 240.805 490.388L240.827 490.334L240.899 490.159L241.004 489.895C241.085 489.689 241.165 489.485 241.245 489.279C241.395 488.879 241.538 488.477 241.674 488.075C241.95 487.253 242.198 486.42 242.417 485.581C242.532 485.14 243.042 484.827 243.485 484.971C243.936 485.119 244.214 485.573 244.089 486.045" fill="#B5E2B7"/>
<path d="M240.235 486.861C240.235 487.995 240.235 489.127 240.235 490.258C240.235 490.714 239.836 491.153 239.368 491.132C238.897 491.109 238.5 490.747 238.5 490.258C238.5 489.127 238.5 487.995 238.5 486.861C238.5 486.406 238.897 485.967 239.368 485.987C239.838 486.01 240.235 486.371 240.235 486.861Z" fill="#B5E2B7"/>
<path d="M234.986 485.851C235.322 487.074 235.656 488.298 235.992 489.518C236.113 489.959 235.842 490.487 235.385 490.592C234.929 490.697 234.447 490.454 234.318 489.982C233.984 488.762 233.648 487.537 233.314 486.315C233.193 485.876 233.464 485.346 233.918 485.243C234.377 485.136 234.857 485.379 234.986 485.851Z" fill="#B5E2B7"/>
<path d="M171.204 436.699C171.306 437.449 171.302 438.167 171.157 438.913C171.028 439.579 170.772 440.228 170.431 440.811C170.202 441.205 169.639 441.38 169.245 441.125C168.852 440.869 168.686 440.352 168.934 439.931L169.141 439.544L169.227 439.358L169.206 439.403L169.247 439.294C169.344 439.038 169.419 438.775 169.473 438.507L169.512 438.305C169.548 438.076 169.499 438.457 169.516 438.276L169.549 437.868V437.455L169.535 437.222C169.53 437.167 169.494 436.893 169.534 437.163C169.499 436.921 169.493 436.713 169.622 436.491C169.726 436.309 169.931 436.138 170.138 436.091C170.361 436.039 170.609 436.049 170.808 436.177C170.982 436.293 171.177 436.482 171.205 436.699" fill="#B5E2B7"/>
<path d="M168.635 436.901C168.495 437.69 168.354 438.482 168.215 439.271C168.18 439.473 167.989 439.692 167.817 439.793C167.631 439.902 167.358 439.948 167.149 439.879C166.938 439.811 166.735 439.682 166.631 439.48C166.516 439.261 166.5 439.049 166.543 438.808C166.682 438.016 166.821 437.227 166.961 436.437C166.996 436.233 167.188 436.017 167.358 435.916C167.545 435.806 167.819 435.759 168.028 435.827C168.237 435.895 168.44 436.027 168.547 436.229C168.661 436.448 168.676 436.658 168.635 436.901" fill="#B5E2B7"/>
<path d="M163.619 435.955C164.273 436.975 164.748 438.123 165.002 439.308C165.096 439.754 164.871 440.273 164.395 440.38C163.959 440.481 163.43 440.248 163.328 439.772C163.211 439.222 163.043 438.688 162.834 438.167L162.857 438.22L162.812 438.117L162.744 437.965L162.543 437.563C162.414 437.315 162.273 437.072 162.121 436.837C161.875 436.454 162.031 435.856 162.433 435.644C162.863 435.413 163.357 435.547 163.619 435.955" fill="#B5E2B7"/>
<path d="M141.966 464.907C141.538 466.216 141.112 467.523 140.684 468.834C140.542 469.267 140.079 469.592 139.616 469.442C139.188 469.302 138.86 468.834 139.012 468.37C139.44 467.061 139.866 465.752 140.294 464.443C140.434 464.01 140.899 463.685 141.36 463.833C141.79 463.973 142.118 464.443 141.966 464.907Z" fill="#B5E2B7"/>
<path d="M138.729 464.326L138.489 464.827L138.426 464.971L138.421 464.982L138.335 465.204C138.206 465.553 138.098 465.907 138.009 466.268L137.893 466.81L137.852 467.045L137.827 467.204V467.209C137.786 467.577 137.764 467.944 137.759 468.317C137.758 468.773 137.364 469.21 136.893 469.189C136.426 469.169 136.022 468.806 136.026 468.317C136.038 466.617 136.456 464.954 137.231 463.445C137.44 463.041 138.038 462.886 138.417 463.133C138.831 463.399 138.952 463.892 138.729 464.327" fill="#B5E2B7"/>
<path d="M134.373 464.427C134.699 465.74 135.025 467.051 135.35 468.364C135.461 468.805 135.209 469.328 134.746 469.436C134.295 469.539 133.795 469.3 133.679 468.825C133.351 467.514 133.027 466.204 132.699 464.893C132.591 464.449 132.841 463.924 133.306 463.819C133.754 463.716 134.254 463.953 134.373 464.427Z" fill="#B5E2B7"/>
<path d="M125.198 479.731C124.852 480.515 124.506 481.298 124.159 482.083C124.075 482.271 123.827 482.432 123.641 482.483C123.434 482.541 123.157 482.516 122.973 482.397C122.789 482.275 122.625 482.098 122.573 481.875L122.543 481.642L122.661 481.203C123.008 480.418 123.354 479.634 123.7 478.849C123.782 478.664 124.032 478.501 124.219 478.449C124.426 478.392 124.702 478.418 124.887 478.538C125.073 478.657 125.235 478.837 125.286 479.059L125.317 479.29L125.198 479.731" fill="#B5E2B7"/>
<path d="M121.164 477.724C121.164 478.855 121.164 479.989 121.164 481.121C121.164 481.576 120.764 482.015 120.295 481.992C119.826 481.972 119.428 481.609 119.428 481.121C119.428 479.989 119.428 478.855 119.428 477.724C119.428 477.266 119.828 476.831 120.295 476.852C120.764 476.872 121.164 477.235 121.164 477.724Z" fill="#B5E2B7"/>
<path d="M117.216 478.037C117.632 479.004 118.05 479.968 118.465 480.933C118.562 481.158 118.619 481.362 118.552 481.605C118.496 481.809 118.34 482.028 118.154 482.129C117.951 482.236 117.709 482.287 117.484 482.215C117.285 482.151 117.054 482.017 116.966 481.815C116.55 480.849 116.134 479.884 115.718 478.919C115.622 478.695 115.562 478.491 115.63 478.247C115.685 478.043 115.841 477.825 116.029 477.726C116.23 477.617 116.474 477.563 116.697 477.637C116.898 477.701 117.128 477.835 117.216 478.037" fill="#B5E2B7"/>
<path d="M107.895 456.53C107.533 457.658 107.172 458.785 106.809 459.913C106.67 460.346 106.203 460.671 105.744 460.523C105.312 460.383 104.988 459.915 105.138 459.449C105.498 458.321 105.861 457.194 106.221 456.066C106.361 455.634 106.83 455.308 107.289 455.456C107.721 455.598 108.043 456.064 107.895 456.53Z" fill="#B5E2B7"/>
<path d="M104.75 456.328C104.908 457.274 104.865 458.243 104.541 459.152C104.463 459.368 104.345 459.554 104.142 459.673C103.955 459.783 103.683 459.83 103.474 459.762C103.263 459.694 103.062 459.562 102.955 459.36C102.851 459.162 102.789 458.909 102.867 458.688C102.978 458.379 103.056 458.059 103.101 457.734L103.07 457.967C103.124 457.554 103.126 457.14 103.072 456.728L103.102 456.961L103.076 456.792C103.037 456.555 103.039 456.334 103.164 456.12C103.268 455.938 103.475 455.765 103.682 455.718C103.904 455.666 104.154 455.679 104.35 455.806C104.529 455.922 104.713 456.107 104.75 456.328" fill="#B5E2B7"/>
<path d="M100.382 456.557C100.387 456.596 100.423 456.913 100.396 456.685L100.427 456.901L100.513 457.402C100.574 457.711 100.644 458.02 100.726 458.323C100.806 458.628 100.896 458.929 100.998 459.228L101.17 459.707L101.25 459.909L101.306 460.043L101.301 460.036C101.397 460.259 101.457 460.463 101.389 460.708C101.334 460.91 101.178 461.129 100.989 461.23C100.617 461.428 99.9957 461.364 99.8031 460.917C99.2008 459.515 98.8176 458.074 98.6455 456.557C98.5944 456.101 99.0819 455.665 99.5143 455.683C100.029 455.706 100.326 456.068 100.381 456.557" fill="#B5E2B7"/>
<path d="M178.139 484.25C177.883 485.122 177.625 485.993 177.369 486.865C177.24 487.302 176.752 487.622 176.301 487.475C175.861 487.331 175.558 486.869 175.695 486.402C175.953 485.53 176.209 484.658 176.467 483.786C176.597 483.349 177.082 483.029 177.533 483.176C177.973 483.32 178.279 483.782 178.139 484.25Z" fill="#B5E2B7"/>
<path d="M175.783 483.219C175.783 484.002 175.783 484.788 175.783 485.571C175.783 486.026 175.384 486.466 174.917 486.445C174.445 486.422 174.05 486.061 174.05 485.571C174.05 484.788 174.05 484.002 174.05 483.219C174.05 482.761 174.447 482.327 174.917 482.347C175.386 482.368 175.783 482.731 175.783 483.219Z" fill="#B5E2B7"/>
<path d="M139.686 441.195C138.944 442.94 138.204 444.686 137.463 446.432C137.282 446.855 136.635 446.978 136.276 446.745C135.84 446.463 135.772 446.003 135.965 445.552C136.705 443.806 137.446 442.06 138.188 440.314C138.366 439.892 139.014 439.768 139.374 440.001C139.811 440.283 139.876 440.743 139.686 441.195Z" fill="#B5E2B7"/>
<path d="M135.176 440.683C135.004 442.594 134.832 444.503 134.66 446.414C134.619 446.867 134.289 447.308 133.793 447.285C133.357 447.267 132.881 446.9 132.924 446.414C133.097 444.503 133.271 442.594 133.443 440.683C133.484 440.232 133.812 439.789 134.309 439.811C134.746 439.832 135.221 440.199 135.176 440.683Z" fill="#B5E2B7"/>
<path d="M86.8778 471.587C86.4782 473.494 86.0787 475.401 85.6792 477.305C85.5808 477.767 85.044 478.035 84.6117 477.915C84.1364 477.784 83.9089 477.305 84.0052 476.842C84.4047 474.937 84.8043 473.03 85.2059 471.124C85.3022 470.662 85.839 470.394 86.2713 470.514C86.7466 470.645 86.9761 471.124 86.8778 471.587Z" fill="#B5E2B7"/>
<path d="M82.1817 471.369C82.1817 472.391 82.1817 473.414 82.1817 474.436C82.1817 474.894 81.7822 475.329 81.313 475.308C80.8438 475.288 80.4463 474.925 80.4463 474.436C80.4463 473.414 80.4463 472.391 80.4463 471.369C80.4463 470.911 80.8438 470.477 81.313 470.497C81.7822 470.518 82.1817 470.881 82.1817 471.369Z" fill="#B5E2B7"/>
</svg>
